<svg xmlns="http://www.w3.org/2000/svg" height="48.67" width="48.67" version="1.1" data-name="Layer 1" id="prefix__Layer_1"><defs id="prefix__defs337"><clipPath id="prefix__clip-path"><rect id="prefix__rect334" rx="9.52" height="46.67" width="46.67" y="23.67" x="44.26" class="prefix__cls-1"/></clipPath><style id="style332">.prefix__cls-1{fill:none}.prefix__cls-7{fill:#fff}.prefix__cls-4{fill:#e14422}.prefix__cls-6{fill:#f15a24}.prefix__cls-7{opacity:.28}</style></defs><rect id="prefix__rect339" rx="9.52" height="46.67" width="46.67" y="1" x=".85" fill="#fff"/><g transform="translate(-43.26 -22.67)" id="prefix__g365" clip-path="url(#prefix__clip-path)"><rect id="prefix__rect341" rx="1.36" height="9.33" width="19.75" y="48.26" x="57.83" class="prefix__cls-4"/><path id="prefix__path343" d="M76.23 48.26h-1.49v1.85H57.83v2.73l.07 1.66 2.1 1.16 9.81 1.1.19.24h6a1.57 1.57 0 001.51-1.15v-6.23a1.35 1.35 0 00-1.28-1.36z" fill="#c03719"/><path id="prefix__path345" d="M69.65 36.12h-3.88a.69.69 0 01-.69-.68v-5.27a.68.68 0 011-.62l3.89 1.73a.67.67 0 01.4.62v3.54a.68.68 0 01-.72.68z" class="prefix__cls-6"/><path id="prefix__path347" d="M69.93 31.28l-1-.45V34h-3.85v1.45a.61.61 0 00.08.3l4.12.24.87-.09a.67.67 0 00.18-.45V31.9a.67.67 0 00-.4-.62z" class="prefix__cls-4"/><path id="prefix__path349" d="M69.65 36.12h-3.88a.69.69 0 01-.69-.68v-5.27a.68.68 0 011-.62l3.89 1.73a.67.67 0 01.4.62v3.54a.68.68 0 01-.72.68z" class="prefix__cls-1"/><path id="prefix__path351" d="M65.79 30.12c-.31-.11-.5.26.36.68.86.42 3.33 1.58 3.44 1.21.11-.37-2.87-1.59-3.8-1.89z" class="prefix__cls-7"/><path id="prefix__path353" d="M76.39 48.26H59.18a.51.51 0 01-.37-.87 16.64 16.64 0 004.79-10.48 1.55 1.55 0 011.56-1.43h5.57a1 1 0 011.06 1c.37 5.15 3.48 9.26 5 11a.52.52 0 01-.4.78z" fill="gray"/><path id="prefix__path355" d="M70 35.48h-.75l.05.5s1.2 8.68 4.69 11.77a3.7 3.7 0 00.8.51h1.61a.52.52 0 00.39-.86c-.21-.23-.45-.52-.71-.84v-.07c-.18-.23-.37-.47-.56-.74-.19-.28-.39-.57-.59-.88l-.11-.16c-.19-.3-.39-.62-.58-1l-.24-.19c-.2-.36-.39-.72-.57-1.1v-.11c-.18-.38-.35-.76-.51-1.16l-.08-.15c-.16-.41-.3-.84-.43-1.27l-.07-.25c-.13-.44-.23-.88-.32-1.34a1.85 1.85 0 010-.23c-.08-.48-.15-1-.19-1.48a1.24 1.24 0 00-.1-.39 1.07 1.07 0 00-1-.57H70z" fill="#666"/><path id="prefix__path357" d="M68.4 38.85a16.11 16.11 0 002.25 6.73.43.43 0 01-.31.67 9.07 9.07 0 01-3.69-.16.43.43 0 01-.26-.46 67.65 67.65 0 011.15-6.82.44.44 0 01.86.04z" class="prefix__cls-7"/><path id="prefix__path359" d="M75.69 90.14H60a1.49 1.49 0 01-1.47-1.36l-3-36.26a1.48 1.48 0 011.47-1.6h21.45a1.49 1.49 0 011.48 1.59l-2.77 36.26a1.47 1.47 0 01-1.47 1.37z" class="prefix__cls-6"/><path id="prefix__path361" d="M78.45 50.92h-3.87l-2.1 39.22h3.21a1.47 1.47 0 001.47-1.37l2.77-36.26a1.49 1.49 0 00-1.48-1.59z" class="prefix__cls-4"/><path id="prefix__path363" d="M67.5 53.59h2.9A1.32 1.32 0 0171.73 55L71 86.64a1.31 1.31 0 01-1.32 1.3h-.84a1.32 1.32 0 01-1.33-1.27L66.18 55a1.33 1.33 0 011.32-1.41z" class="prefix__cls-7"/></g><rect id="prefix__rect367" rx="9.52" height="46.67" width="46.67" y="1" x="1" stroke="#b3b3b3" stroke-miterlimit="10" stroke-width="2" fill="none"/></svg>