<svg xmlns="http://www.w3.org/2000/svg" height="48.67" width="48.67" data-name="Layer 1"><defs><clipPath id="prefix__a"><rect rx="9.52" height="46.67" width="46.67" y="23.67" x="44.26" fill="none"/></clipPath></defs><rect rx="9.52" height="46.67" width="46.67" y="1" x=".85" fill="#fff"/><g transform="translate(-43.26 -22.67)" clip-path="url(#prefix__a)"><rect rx="3.14" height="40.47" width="24.12" y="32.88" x="55.57" fill="#f0d1b8"/><path d="M72.58 35.74H55.65a3.94 3.94 0 00-.08.77v33.2a3.63 3.63 0 003.63 3.63h16.92a4 4 0 00.09-.77V39.38a3.63 3.63 0 00-3.63-3.64z" fill="#feebd8"/><path d="M79.88 64l-3.62 1.31H55.77A1.18 1.18 0 0154.45 64V42.49c0-.51.1-1.38 1.32-1.31h20.39L79.69 40c.71-.21 1.12.3 1.07 1.22l.1 21.31a1.42 1.42 0 01-.98 1.47z" fill="#0071bc"/><path d="M79.69 40l-3.53 1.19h-.08v24.07h.18L79.88 64a1.42 1.42 0 001-1.43l-.1-21.31c.03-.97-.38-1.48-1.09-1.26z" fill="#1c5a9d"/><rect rx="1.85" height="19.94" width="5.38" y="43.32" x="59.27" opacity=".28" fill="#fff"/></g><rect rx="9.52" height="46.67" width="46.67" y="1" x="1" stroke="#b3b3b3" stroke-miterlimit="10" stroke-width="2" fill="none"/></svg>