<?xml version="1.0" encoding="UTF-8" standalone="no"?>
<svg
   xmlns:dc="http://purl.org/dc/elements/1.1/"
   xmlns:cc="http://creativecommons.org/ns#"
   xmlns:rdf="http://www.w3.org/1999/02/22-rdf-syntax-ns#"
   xmlns:svg="http://www.w3.org/2000/svg"
   xmlns="http://www.w3.org/2000/svg"
   xmlns:sodipodi="http://sodipodi.sourceforge.net/DTD/sodipodi-0.dtd"
   xmlns:inkscape="http://www.inkscape.org/namespaces/inkscape"
   inkscape:version="1.0 (4035a4fb49, 2020-05-01)"
   height="48.669998"
   width="48.669998"
   sodipodi:docname="framed_colour_pen3.svg"
   version="1.1"
   viewBox="0 0 48.669999 48.669996"
   data-name="Layer 1"
   id="Layer_1">
  <metadata
     id="metadata80">
    <rdf:RDF>
      <cc:Work
         rdf:about="">
        <dc:format>image/svg+xml</dc:format>
        <dc:type
           rdf:resource="http://purl.org/dc/dcmitype/StillImage" />
        <dc:title></dc:title>
      </cc:Work>
    </rdf:RDF>
  </metadata>
  <sodipodi:namedview
     inkscape:current-layer="Layer_1"
     inkscape:window-maximized="0"
     inkscape:window-y="88"
     inkscape:window-x="2752"
     inkscape:cy="24.335"
     inkscape:cx="24.330001"
     inkscape:zoom="7.9606043"
     fit-margin-bottom="0"
     fit-margin-right="0"
     fit-margin-left="0"
     fit-margin-top="0"
     inkscape:pagecheckerboard="true"
     showgrid="false"
     id="namedview78"
     inkscape:window-height="714"
     inkscape:window-width="943"
     inkscape:pageshadow="2"
     inkscape:pageopacity="0"
     guidetolerance="10"
     gridtolerance="10"
     objecttolerance="10"
     borderopacity="1"
     bordercolor="#666666"
     pagecolor="#ffffff" />
  <defs
     id="defs51">
    <style
       id="style46">.cls-1,.cls-10{fill:none;}.cls-2,.cls-6{fill:#fff;}.cls-3{clip-path:url(#clip-path);}.cls-4{fill:#0071bc;}.cls-5{fill:#1c5a9d;}.cls-6{opacity:0.28;}.cls-7{fill:#29abe2;}.cls-8{fill:gray;}.cls-9{fill:#666;}.cls-10{stroke:#b3b3b3;stroke-miterlimit:10;stroke-width:2px;}</style>
    <clipPath
       id="clip-path">
      <rect
         id="rect48"
         rx="9.5200005"
         height="46.669998"
         width="46.669998"
         y="23.67"
         x="44.189999"
         class="cls-1" />
    </clipPath>
  </defs>
  <rect
     id="rect53"
     rx="9.5200005"
     height="46.669998"
     width="46.669998"
     y="1"
     x="1"
     class="cls-2" />
  <g
     transform="translate(-43.189999,-22.67)"
     id="g73"
     clip-path="url(#clip-path)"
     class="cls-3">
    <path
       id="path55"
       d="m 63.78,38.17 c 0,0 -0.17,-4.83 2.49,-8.26 a 1.6,1.6 0 0 1 2.63,0.14 12.74,12.74 0 0 1 2.1,7.82 c -0.36,7.77 -7.39,4.53 -7.22,0.3 z"
       class="cls-4" />
    <path
       id="path57"
       d="m 66.93,29.49 c 1.37,0.69 2.43,3.37 2.38,5.12 0,2.25 -0.7,2.45 -1.85,2.5 -1.15,0.05 -2.59,0 -3.44,-1 -0.15,1.18 -0.24,2 -0.24,2 a 4.39,4.39 0 0 0 1.61,3.44 l 4.2,0.28 c 0.77,-0.7 1.33,-2 1.43,-4 A 12.74,12.74 0 0 0 68.9,30.01 1.79,1.79 0 0 0 66.93,29.49 Z"
       class="cls-5" />
    <path
       id="path59"
       d="m 67.52,31.37 c -0.53,-0.12 -1.78,4.68 0,4.74 1.78,0.06 0.48,-4.64 0,-4.74 z"
       class="cls-6" />
    <rect
       id="rect61"
       rx="2.54"
       height="32.709999"
       width="20.709999"
       y="46.759998"
       x="57.169998"
       class="cls-7" />
    <path
       id="path63"
       d="m 75.34,46.76 h -0.66 l 0.29,1 c 0,0 0.49,0.31 0.49,4.72 v 27 a 2.53,2.53 0 0 0 2.41,-2.52 V 49.29 a 2.53,2.53 0 0 0 -2.53,-2.53 z"
       class="cls-4" />
    <path
       id="path65"
       d="m 63.85,38.08 a 21,21 0 0 0 7,-0.09 1.53,1.53 0 0 1 1.5,0.66 c 0.68,4.52 2.8,5.58 4.57,6.94 a 1.47,1.47 0 0 1 -1,2.32 c -3.51,0 -9.95,0.07 -16.89,0.07 -1,0 -1.76,-1.61 -1,-2.28 1.78,-1.47 3.14,-2.06 4.23,-6.91 0.15,-0.62 0.96,-0.79 1.59,-0.71 z"
       class="cls-8" />
    <path
       id="path67"
       d="m 75.88,47.91 a 1.47,1.47 0 0 0 1,-2.32 c -1.77,-1.36 -3.89,-2.42 -4.57,-6.94 a 1.53,1.53 0 0 0 -1.5,-0.66 l -1.07,0.15 v 0 c 0,0 0.88,4.45 2.76,6.33 1.5,1.53 2.83,2.67 2.5,3.44 z"
       class="cls-9" />
    <path
       id="path69"
       d="m 69.59,50.52 a 20,20 0 0 0 2.07,-0.13 1.11,1.11 0 0 1 1.24,1.11 v 24.84 a 1.11,1.11 0 0 1 -1.09,1.11 h -2 A 1.11,1.11 0 0 1 68.67,76.34 L 68.5,51.65 a 1.11,1.11 0 0 1 1.09,-1.13 z"
       class="cls-6" />
    <path
       id="path71"
       d="m 69.22,40 a 13.69,13.69 0 0 0 2.57,5.51 0.38,0.38 0 0 1 -0.2,0.61 7.91,7.91 0 0 1 -3.16,0.21 0.37,0.37 0 0 1 -0.26,-0.36 55.31,55.31 0 0 1 0.32,-5.97 0.37,0.37 0 0 1 0.73,0 z"
       class="cls-6" />
  </g>
  <rect
     id="rect75"
     rx="9.5200005"
     height="46.669998"
     width="46.669998"
     y="1"
     x="1"
     class="cls-10" />
</svg>
