<svg width="515" height="480" xmlns="http://www.w3.org/2000/svg">
 
 <g>
 
   
    <g id="svg_4">
     <rect id="svg_7"  height="34.01" width="34.01" y="84.10584" x="107.25051" class="cls-2"/>
     <rect id="svg_8"  height="30.09" width="30.09" y="85.40584" x="109.69051" class="cls-3"/>
     <path id="svg_9" d="m113.73051,88.46584s1.39,-1.56 6.54,-1.56s12.75,-1 15.77,1.56s2.21,7.44 2.29,13.24c0,0 -0.41,-9.24 -3.35,-11.53s-7,-2.37 -13.73,-2.2s-7.52,0.49 -7.52,0.49z" class="cls-4"/>
     <path id="svg_10" d="m135.37051,112.71584s-1.39,1.56 -6.54,1.56s-12.75,1 -15.78,-1.56s-2.21,-7.44 -2.32,-13.24c0,0 0.41,9.24 3.36,11.53s7,2.37 13.73,2.2s7.55,-0.49 7.55,-0.49z" class="cls-4"/>
     <path id="svg_11" d="m136.02051,89.85584a2,2 0 0 1 0,2.76a2,2 0 0 1 -2.64,-0.81a2,2 0 0 1 0,-2.75a2,2 0 0 1 2.64,0.8z" class="cls-5"/>
     <path id="svg_12" d="m135.45051,89.77584a0.79,0.79 0 1 1 -1.21,0.9c-0.34,-0.45 -0.5,-0.83 -0.17,-1.08a1.06,1.06 0 0 1 1.38,0.18z" class="cls-6"/>
     <path id="svg_13" d="m124.29051,108.90584a1.06,1.06 0 0 1 -0.66,-0.23l-4.13,-3.34a2.19,2.19 0 0 1 -0.36,0l-3.08,0a2,2 0 0 1 -2,-2l0,-3.81a2,2 0 0 1 2,-2l3.08,0l0.22,0l4.27,-3.5a1,1 0 0 1 1.7,0.81l0,13a1,1 0 0 1 -1,1l-0.04,0.07z" class="cls-2"/>
     <path id="svg_14" d="m123.99051,94.44584l-4.48,3.66a1.44,1.44 0 0 0 -0.37,0l-3.08,0a1.46,1.46 0 0 0 -1.46,1.47l0,3.81a1.46,1.46 0 0 0 1.46,1.47l3.08,0a1.52,1.52 0 0 0 0.49,-0.09l4.36,3.52a0.47,0.47 0 0 0 0.77,-0.37l0,-13a0.47,0.47 0 0 0 -0.77,-0.47z" class="cls-7"/>
     <path id="svg_15" d="m127.29051,106.64584a1.53,1.53 0 0 1 -1,-0.35a1.49,1.49 0 0 1 -0.19,-2.1a4.72,4.72 0 0 0 -0.15,-5.93a1.5,1.5 0 0 1 0.26,-2.1a1.53,1.53 0 0 1 0.92,-0.32a1.49,1.49 0 0 1 1.18,0.58a7.69,7.69 0 0 1 0.13,9.68a1.49,1.49 0 0 1 -1.15,0.54z" class="cls-2"/>
     <path id="svg_16" d="m127.29051,106.10584a0.88,0.88 0 0 1 -0.59,-0.22a0.91,0.91 0 0 1 -0.12,-1.3a5.3,5.3 0 0 0 -0.14,-6.64a0.93,0.93 0 0 1 1.46,-1.14a7.12,7.12 0 0 1 0.11,9a0.94,0.94 0 0 1 -0.72,0.3z" class="cls-7"/>
     <path id="svg_17" d="m128.27051,101.51584a5.32,5.32 0 0 0 -1.09,-3.41a7.08,7.08 0 0 1 -0.77,-1.27a0.9,0.9 0 0 0 0,1.08a5.3,5.3 0 0 1 0.14,6.64a0.91,0.91 0 0 0 0.12,1.3l0,0a1.28,1.28 0 0 1 0.23,-0.81a6.35,6.35 0 0 0 1.37,-3.53z" class="cls-8"/>
     <path id="svg_18" d="m130.73051,108.21584a1.81,1.81 0 0 1 -1.39,-3a6.41,6.41 0 0 0 -0.19,-8.08a1.77,1.77 0 0 1 -0.37,-1.33a1.8,1.8 0 0 1 0.68,-1.2a1.78,1.78 0 0 1 1.11,-0.38a1.8,1.8 0 0 1 1.42,0.69a10,10 0 0 1 0.12,12.6a1.79,1.79 0 0 1 -1.38,0.7z" class="cls-2"/>
     <path id="svg_19" d="m130.73051,107.64584a1.23,1.23 0 0 1 -0.79,-0.28a1.25,1.25 0 0 1 -0.16,-1.74a7,7 0 0 0 -0.19,-8.79a1.24,1.24 0 0 1 2,-1.52a9.44,9.44 0 0 1 0.14,11.89a1.25,1.25 0 0 1 -1,0.44z" class="cls-7"/>
     <path id="svg_20" d="m131.97051,101.72584a8.32,8.32 0 0 0 -1.53,-5a3.79,3.79 0 0 1 -0.71,-1.48a1.24,1.24 0 0 0 -0.09,1.59a7,7 0 0 1 0.19,8.79a1.25,1.25 0 0 0 0.16,1.74l0.14,0.08a1.23,1.23 0 0 1 0.19,-1.13a7.38,7.38 0 0 0 1.65,-4.59z" class="cls-8"/>
     <path id="svg_21" d="m116.06051,104.80584l3.08,0a1.52,1.52 0 0 0 0.49,-0.09l4.36,3.52a0.47,0.47 0 0 0 0.77,-0.37l0,-2.41c0,-0.15 -0.1,2.34 -1.11,1.19c-0.27,-0.08 -3.09,-2.66 -3.44,-2.66l-3.77,0c-1.38,0 -1.23,-0.76 -1.2,-3.23c0,-1.76 0.06,-2.3 0.29,-2.6a1.47,1.47 0 0 0 -0.93,1.37l0,3.81a1.46,1.46 0 0 0 1.46,1.47z" class="cls-8"/>
    </g>
   </g>
  </g>
  <defs>
   <style>.cls-1{isolation:isolate;}.cls-2{fill:#aa2a16;}.cls-3{fill:#da3c13;}.cls-4,.cls-5,.cls-6{fill:#fff;}.cls-4{opacity:0.35;}.cls-5{mix-blend-mode:soft-light;}.cls-6{opacity:0.5;}.cls-7{fill:#ececec;}.cls-8{fill:#c6c7c8;}</style>
  </defs>
  <g stroke="null" id="svg_43">
   <g stroke="null" transform="matrix(14.576428752121632,0,0,13.60612382469398,-2999.660833100155,-2081.6115306792826) " id="svg_27" class="cls-1">
    <g stroke="null" id="svg_25">
     <rect stroke="null" id="svg_28" rx="8.26" height="34.01" width="34.01" y="153.71166" x="206.71034" class="cls-2"/>
     <rect stroke="null" id="svg_29" rx="8.26" height="30.09" width="30.09" y="155.01166" x="209.15034" class="cls-3"/>
     <path stroke="null" id="svg_30" d="m213.19034,158.07166s1.39,-1.56 6.54,-1.56s12.75,-1 15.77,1.56s2.21,7.44 2.29,13.24c0,0 -0.41,-9.24 -3.35,-11.53s-7,-2.37 -13.73,-2.2s-7.52,0.49 -7.52,0.49z" class="cls-4"/>
     <path stroke="null" id="svg_31" d="m234.83034,182.32166s-1.39,1.56 -6.54,1.56s-12.75,1 -15.78,-1.56s-2.21,-7.44 -2.32,-13.24c0,0 0.41,9.24 3.36,11.53s7,2.37 13.73,2.2s7.55,-0.49 7.55,-0.49z" class="cls-4"/>
     <path stroke="null" id="svg_32" d="m235.48034,159.46166a2,2 0 0 1 0,2.76a2,2 0 0 1 -2.64,-0.81a2,2 0 0 1 0,-2.75a2,2 0 0 1 2.64,0.8z" class="cls-5"/>
     <path stroke="null" id="svg_33" d="m234.91034,159.38166a0.79,0.79 0 1 1 -1.21,0.9c-0.34,-0.45 -0.5,-0.83 -0.17,-1.08a1.06,1.06 0 0 1 1.38,0.18z" class="cls-6"/>
     <path stroke="null" id="svg_34" d="m223.75034,178.51166a1.06,1.06 0 0 1 -0.66,-0.23l-4.13,-3.34a2.19,2.19 0 0 1 -0.36,0l-3.08,0a2,2 0 0 1 -2,-2l0,-3.81a2,2 0 0 1 2,-2l3.08,0l0.22,0l4.27,-3.5a1,1 0 0 1 1.7,0.81l0,13a1,1 0 0 1 -1,1l-0.04,0.07z" class="cls-2"/>
     <path stroke="null" id="svg_35" d="m223.45034,164.05166l-4.48,3.66a1.44,1.44 0 0 0 -0.37,0l-3.08,0a1.46,1.46 0 0 0 -1.46,1.47l0,3.81a1.46,1.46 0 0 0 1.46,1.47l3.08,0a1.52,1.52 0 0 0 0.49,-0.09l4.36,3.52a0.47,0.47 0 0 0 0.77,-0.37l0,-13a0.47,0.47 0 0 0 -0.77,-0.47z" class="cls-7"/>
     <path stroke="null" id="svg_36" d="m226.75034,176.25166a1.53,1.53 0 0 1 -1,-0.35a1.49,1.49 0 0 1 -0.19,-2.1a4.72,4.72 0 0 0 -0.15,-5.93a1.5,1.5 0 0 1 0.26,-2.1a1.53,1.53 0 0 1 0.92,-0.32a1.49,1.49 0 0 1 1.18,0.58a7.69,7.69 0 0 1 0.13,9.68a1.49,1.49 0 0 1 -1.15,0.54z" class="cls-2"/>
     <path stroke="null" id="svg_37" d="m226.75034,175.71166a0.88,0.88 0 0 1 -0.59,-0.22a0.91,0.91 0 0 1 -0.12,-1.3a5.3,5.3 0 0 0 -0.14,-6.64a0.93,0.93 0 0 1 1.46,-1.14a7.12,7.12 0 0 1 0.11,9a0.94,0.94 0 0 1 -0.72,0.3z" class="cls-7"/>
     <path stroke="null" id="svg_38" d="m227.73034,171.12166a5.32,5.32 0 0 0 -1.09,-3.41a7.08,7.08 0 0 1 -0.77,-1.27a0.9,0.9 0 0 0 0,1.08a5.3,5.3 0 0 1 0.14,6.64a0.91,0.91 0 0 0 0.12,1.3l0,0a1.28,1.28 0 0 1 0.23,-0.81a6.35,6.35 0 0 0 1.37,-3.53z" class="cls-8"/>
     <path stroke="null" id="svg_39" d="m230.19034,177.82166a1.81,1.81 0 0 1 -1.39,-3a6.41,6.41 0 0 0 -0.19,-8.08a1.77,1.77 0 0 1 -0.37,-1.33a1.8,1.8 0 0 1 0.68,-1.2a1.78,1.78 0 0 1 1.11,-0.38a1.8,1.8 0 0 1 1.42,0.69a10,10 0 0 1 0.12,12.6a1.79,1.79 0 0 1 -1.38,0.7z" class="cls-2"/>
     <path stroke="null" id="svg_40" d="m230.19034,177.25166a1.23,1.23 0 0 1 -0.79,-0.28a1.25,1.25 0 0 1 -0.16,-1.74a7,7 0 0 0 -0.19,-8.79a1.24,1.24 0 0 1 2,-1.52a9.44,9.44 0 0 1 0.14,11.89a1.25,1.25 0 0 1 -1,0.44z" class="cls-7"/>
     <path stroke="null" id="svg_41" d="m231.43034,171.33166a8.32,8.32 0 0 0 -1.53,-5a3.79,3.79 0 0 1 -0.71,-1.48a1.24,1.24 0 0 0 -0.09,1.59a7,7 0 0 1 0.19,8.79a1.25,1.25 0 0 0 0.16,1.74l0.14,0.08a1.23,1.23 0 0 1 0.19,-1.13a7.38,7.38 0 0 0 1.65,-4.59z" class="cls-8"/>
     <path stroke="null" id="svg_42" d="m215.52034,174.41166l3.08,0a1.52,1.52 0 0 0 0.49,-0.09l4.36,3.52a0.47,0.47 0 0 0 0.77,-0.37l0,-2.41c0,-0.15 -0.1,2.34 -1.11,1.19c-0.27,-0.08 -3.09,-2.66 -3.44,-2.66l-3.77,0c-1.38,0 -1.23,-0.76 -1.2,-3.23c0,-1.76 0.06,-2.3 0.29,-2.6a1.47,1.47 0 0 0 -0.93,1.37l0,3.81a1.46,1.46 0 0 0 1.46,1.47z" class="cls-8"/>
    </g>
   </g>
  </g>
 </g>
</svg>