<svg id="Layer_1" data-name="Layer 1" xmlns="http://www.w3.org/2000/svg" viewBox="0 0 135.04 94.01"><defs><style>.cls-1{fill:#fff;}.cls-2{fill:none;stroke:#b3b3b3;stroke-miterlimit:10;stroke-width:2px;}.cls-3{fill:gray;}.cls-4{fill:#ccc;}.cls-5{fill:#999;}</style></defs><rect class="cls-1" x="44.19" y="23.67" width="46.67" height="46.67" rx="9.52"/><rect class="cls-2" x="44.19" y="23.67" width="46.67" height="46.67" rx="9.52"/><rect class="cls-3" x="53.31" y="37.68" width="28.41" height="11.65" rx="3.13"/><rect class="cls-4" x="55.45" y="29.5" width="23.62" height="37"/><rect class="cls-5" x="49.79" y="42.09" width="35.47" height="17.44" rx="3.01"/><circle class="cls-4" cx="80.66" cy="46.86" r="1.35"/><circle class="cls-4" cx="77.2" cy="46.86" r="1.35"/><rect class="cls-3" x="53.02" y="45.56" width="11.12" height="2.65" rx="1.32"/><path class="cls-3" d="M49.79,55.33v1.2a3,3,0,0,0,3,3H82.25a3,3,0,0,0,3-3v-1.2Z"/><rect class="cls-4" x="55.45" y="56.88" width="23.62" height="9.62"/><rect class="cls-5" x="59.05" y="58.33" width="15.88" height="0.88"/><rect class="cls-5" x="59.05" y="60.71" width="15.88" height="0.88"/><rect class="cls-5" x="59.05" y="63.09" width="15.88" height="0.88"/></svg>