<svg id="Layer_1" data-name="Layer 1" xmlns="http://www.w3.org/2000/svg" viewBox="0 0 135.04 94.01"><defs><style>.cls-1{fill:gray;}.cls-2{fill:#999;}.cls-3{fill:#fff;}</style></defs><path class="cls-1" d="M81.53,62.47h-28a1.64,1.64,0,0,1-1.64-1.63V33.17a1.65,1.65,0,0,1,1.64-1.64H75.17a1.66,1.66,0,0,1,1.12.44l6.35,5.9a1.63,1.63,0,0,1,.53,1.2V60.84A1.63,1.63,0,0,1,81.53,62.47Z"/><path class="cls-2" d="M60.23,41.53H72.52a1.71,1.71,0,0,0,1.71-1.7v-8.3H58.52v8.3A1.7,1.7,0,0,0,60.23,41.53Z"/><rect class="cls-3" x="56.31" y="46.65" width="22.41" height="12.44" rx="1.55"/><rect class="cls-2" x="58.61" y="49.3" width="17.82" height="1.06"/><rect class="cls-2" x="58.61" y="52.56" width="17.82" height="1.06"/><rect class="cls-2" x="58.61" y="55.47" width="17.82" height="1.06"/><rect class="cls-1" x="68.31" y="33.77" width="2.91" height="4.94" rx="0.6"/></svg>