<svg xmlns="http://www.w3.org/2000/svg" height="48.67" width="48.67" version="1.1" data-name="Layer 1" id="prefix__Layer_1"><defs id="prefix__defs3144"><clipPath id="prefix__clip-path"><rect id="prefix__rect3141" rx="9.52" height="46.67" width="46.67" y="23.67" x="44.19" fill="none"/></clipPath><style id="style3139">.prefix__cls-6{fill:#fff}.prefix__cls-4{fill:#999}.prefix__cls-5{fill:gray}.prefix__cls-6{opacity:.15}</style></defs><rect id="prefix__rect3146" rx="9.52" height="46.67" width="46.67" y="1" x="1" fill="#fff"/><g transform="translate(-43.19 -22.67)" id="prefix__g3166" clip-path="url(#prefix__clip-path)"><path id="prefix__path3148" d="M63.78 38.17s-.17-4.83 2.49-8.26a1.6 1.6 0 012.63.14 12.74 12.74 0 012.1 7.82c-.36 7.77-7.39 4.53-7.22.3z" class="prefix__cls-4"/><path id="prefix__path3150" d="M66.93 29.49c1.37.69 2.43 3.37 2.38 5.12 0 2.25-.7 2.45-1.85 2.5-1.15.05-2.59 0-3.44-1-.15 1.18-.24 2-.24 2a4.39 4.39 0 001.61 3.44l4.2.28c.77-.7 1.33-2 1.43-4a12.74 12.74 0 00-2.12-7.82 1.79 1.79 0 00-1.97-.52z" class="prefix__cls-5"/><path id="prefix__path3152" d="M67.52 31.37c-.53-.12-1.78 4.68 0 4.74 1.78.06.48-4.64 0-4.74z" class="prefix__cls-6"/><rect id="prefix__rect3154" rx="2.54" height="32.71" width="20.71" y="46.76" x="57.17" class="prefix__cls-4"/><path id="prefix__path3156" d="M75.34 46.76h-.66l.29 1s.49.31.49 4.72v27a2.53 2.53 0 002.41-2.52V49.29a2.53 2.53 0 00-2.53-2.53z" class="prefix__cls-5"/><path id="prefix__path3158" d="M63.85 38.08a21 21 0 007-.09 1.53 1.53 0 011.5.66c.68 4.52 2.8 5.58 4.57 6.94a1.47 1.47 0 01-1 2.32c-3.51 0-9.95.07-16.89.07-1 0-1.76-1.61-1-2.28 1.78-1.47 3.14-2.06 4.23-6.91.15-.62.96-.79 1.59-.71z" fill="#ccc"/><path id="prefix__path3160" d="M75.88 47.91a1.47 1.47 0 001-2.32c-1.77-1.36-3.89-2.42-4.57-6.94a1.53 1.53 0 00-1.5-.66l-1.07.15s.88 4.45 2.76 6.33C74 46 75.33 47.14 75 47.91z" fill="#b3b3b3"/><path id="prefix__path3162" d="M69.59 50.52a20 20 0 002.07-.13 1.11 1.11 0 011.24 1.11v24.84a1.11 1.11 0 01-1.09 1.11h-2a1.11 1.11 0 01-1.14-1.11l-.17-24.69a1.11 1.11 0 011.09-1.13z" class="prefix__cls-6"/><path id="prefix__path3164" d="M69.22 40a13.69 13.69 0 002.57 5.51.38.38 0 01-.2.61 7.91 7.91 0 01-3.16.21.37.37 0 01-.26-.36 55.31 55.31 0 01.32-5.97.37.37 0 01.73 0z" opacity=".26" fill="#fff"/></g><rect id="prefix__rect3168" rx="9.52" height="46.67" width="46.67" y="1" x="1" stroke="#b3b3b3" stroke-miterlimit="10" stroke-width="2" fill="none"/></svg>