<?xml version="1.0" encoding="UTF-8" standalone="no"?>
<svg
   xmlns:dc="http://purl.org/dc/elements/1.1/"
   xmlns:cc="http://creativecommons.org/ns#"
   xmlns:rdf="http://www.w3.org/1999/02/22-rdf-syntax-ns#"
   xmlns:svg="http://www.w3.org/2000/svg"
   xmlns="http://www.w3.org/2000/svg"
   xmlns:sodipodi="http://sodipodi.sourceforge.net/DTD/sodipodi-0.dtd"
   xmlns:inkscape="http://www.inkscape.org/namespaces/inkscape"
   inkscape:version="1.0 (4035a4fb49, 2020-05-01)"
   height="48.669998"
   width="48.669998"
   sodipodi:docname="framed_mono_pen3.svg"
   version="1.1"
   viewBox="0 0 48.67 48.669997"
   data-name="Layer 1"
   id="Layer_1">
  <metadata
     id="metadata1086">
    <rdf:RDF>
      <cc:Work
         rdf:about="">
        <dc:format>image/svg+xml</dc:format>
        <dc:type
           rdf:resource="http://purl.org/dc/dcmitype/StillImage" />
        <dc:title></dc:title>
      </cc:Work>
    </rdf:RDF>
  </metadata>
  <sodipodi:namedview
     inkscape:current-layer="Layer_1"
     inkscape:window-maximized="0"
     inkscape:window-y="224"
     inkscape:window-x="3077"
     inkscape:cy="20.555"
     inkscape:cx="24.259998"
     inkscape:zoom="7.7680691"
     inkscape:pagecheckerboard="true"
     fit-margin-bottom="0"
     fit-margin-right="0"
     fit-margin-left="0"
     fit-margin-top="0"
     showgrid="false"
     id="namedview1084"
     inkscape:window-height="480"
     inkscape:window-width="707"
     inkscape:pageshadow="2"
     inkscape:pageopacity="0"
     guidetolerance="10"
     gridtolerance="10"
     objecttolerance="10"
     borderopacity="1"
     bordercolor="#666666"
     pagecolor="#ffffff" />
  <defs
     id="defs1051">
    <style
       id="style1046">.cls-1,.cls-10{fill:none;}.cls-2,.cls-7{fill:#fff;}.cls-3{clip-path:url(#clip-path);}.cls-4{fill:gray;}.cls-5{fill:#666;}.cls-6{fill:#999;}.cls-7{opacity:0.28;}.cls-8{fill:#ccc;}.cls-9{fill:#b3b3b3;}.cls-10{stroke:#b3b3b3;stroke-miterlimit:10;stroke-width:2px;}</style>
    <clipPath
       id="clip-path">
      <rect
         id="rect1048"
         rx="9.5200005"
         height="46.669998"
         width="46.669998"
         y="27.450001"
         x="44.259998"
         class="cls-1" />
    </clipPath>
  </defs>
  <rect
     id="rect1053"
     rx="9.5200005"
     height="46.669998"
     width="46.669998"
     y="1"
     x="0.85000229"
     class="cls-2" />
  <g
     transform="translate(-43.259998,-26.450001)"
     id="g1079"
     clip-path="url(#clip-path)"
     class="cls-3">
    <rect
       id="rect1055"
       rx="1.36"
       height="9.3299999"
       width="19.75"
       y="52.040001"
       x="57.830002"
       class="cls-4" />
    <path
       id="path1057"
       d="m 76.23,52 h -1.49 v 1.85 H 57.83 v 2.73 l 0.07,1.65 2.1,1.21 9.81,1.1 0.26,0.21 h 6 a 1.57,1.57 0 0 0 1.51,-1.16 V 53.4 A 1.35,1.35 0 0 0 76.23,52 Z"
       class="cls-5" />
    <path
       id="path1059"
       d="M 69.65,39.9 H 65.77 A 0.68,0.68 0 0 1 65.08,39.22 V 34 a 0.68,0.68 0 0 1 1,-0.63 l 3.89,1.73 a 0.68,0.68 0 0 1 0.4,0.62 v 3.54 a 0.67,0.67 0 0 1 -0.72,0.64 z"
       class="cls-6" />
    <path
       id="path1061"
       d="m 69.93,35.06 -1,-0.45 v 0.08 3.09 h -3.85 v 1.44 a 0.61,0.61 0 0 0 0.08,0.3 l 4.12,0.25 0.87,-0.1 a 0.67,0.67 0 0 0 0.18,-0.45 v -3.54 a 0.68,0.68 0 0 0 -0.4,-0.62 z"
       class="cls-4" />
    <path
       id="path1063"
       d="M 69.65,39.9 H 65.77 A 0.68,0.68 0 0 1 65.08,39.22 V 34 a 0.68,0.68 0 0 1 1,-0.63 l 3.89,1.73 a 0.68,0.68 0 0 1 0.4,0.62 v 3.54 a 0.67,0.67 0 0 1 -0.72,0.64 z"
       class="cls-1" />
    <path
       id="path1065"
       d="m 65.79,33.9 c -0.31,-0.11 -0.5,0.26 0.36,0.68 0.86,0.42 3.33,1.58 3.44,1.22 0.11,-0.36 -2.87,-1.59 -3.8,-1.9 z"
       class="cls-7" />
    <path
       id="path1067"
       d="M 76.39,52 H 59.18 a 0.51,0.51 0 0 1 -0.37,-0.87 16.64,16.64 0 0 0 4.79,-10.44 1.56,1.56 0 0 1 1.56,-1.43 c 1.62,0 4.16,0 5.57,0 a 1,1 0 0 1 1.06,1 c 0.37,5.15 3.48,9.27 5,11 A 0.51,0.51 0 0 1 76.39,52 Z"
       class="cls-8" />
    <path
       id="path1069"
       d="m 70,39.26 h -0.75 l 0.05,0.51 c 0,0 1.2,8.67 4.69,11.76 a 3.7,3.7 0 0 0 0.8,0.51 h 1.61 a 0.51,0.51 0 0 0 0.39,-0.85 c -0.21,-0.24 -0.45,-0.52 -0.71,-0.84 v 0 -0.06 C 75.9,50.06 75.71,49.81 75.52,49.54 v 0 C 75.33,49.27 75.13,48.97 74.93,48.67 L 74.82,48.5 c -0.19,-0.3 -0.39,-0.62 -0.58,-1 L 74,47.3 c -0.2,-0.35 -0.39,-0.72 -0.57,-1.1 a 0.37,0.37 0 0 1 0,-0.11 c -0.18,-0.37 -0.35,-0.76 -0.51,-1.16 l -0.06,-0.15 c -0.16,-0.41 -0.3,-0.83 -0.43,-1.27 0,-0.08 0,-0.16 -0.07,-0.25 -0.13,-0.44 -0.23,-0.88 -0.32,-1.34 a 1.57,1.57 0 0 1 0,-0.23 c -0.08,-0.48 -0.15,-1 -0.19,-1.48 v 0 a 1.12,1.12 0 0 0 -0.1,-0.38 1.08,1.08 0 0 0 -1,-0.58 H 70 Z"
       class="cls-9" />
    <path
       id="path1071"
       d="m 68.4,42.64 a 16.12,16.12 0 0 0 2.25,6.72 0.44,0.44 0 0 1 -0.31,0.68 9.26,9.26 0 0 1 -3.69,-0.17 0.43,0.43 0 0 1 -0.26,-0.46 67.65,67.65 0 0 1 1.15,-6.82 0.44,0.44 0 0 1 0.86,0.05 z"
       class="cls-7" />
    <path
       id="path1073"
       d="M 75.69,93.92 H 60 a 1.49,1.49 0 0 1 -1.47,-1.36 l -3,-36.25 A 1.47,1.47 0 0 1 57,54.71 h 21.45 a 1.49,1.49 0 0 1 1.48,1.59 l -2.77,36.25 a 1.47,1.47 0 0 1 -1.47,1.37 z"
       class="cls-6" />
    <path
       id="path1075"
       d="m 78.45,54.71 h -3.87 l -2.1,39.21 h 3.21 a 1.47,1.47 0 0 0 1.47,-1.37 L 79.93,56.3 a 1.49,1.49 0 0 0 -1.48,-1.59 z"
       class="cls-4" />
    <path
       id="path1077"
       d="m 67.5,57.37 h 2.9 a 1.33,1.33 0 0 1 1.33,1.36 L 71,90.43 a 1.31,1.31 0 0 1 -1.32,1.29 h -0.84 a 1.32,1.32 0 0 1 -1.33,-1.27 l -1.3,-31.7 a 1.33,1.33 0 0 1 1.29,-1.38 z"
       class="cls-7" />
  </g>
  <rect
     id="rect1081"
     rx="9.5200005"
     height="46.669998"
     width="46.669998"
     y="1"
     x="1"
     class="cls-10" />
</svg>
