<?xml version="1.0" encoding="UTF-8" standalone="no"?>
<svg
   xmlns:dc="http://purl.org/dc/elements/1.1/"
   xmlns:cc="http://creativecommons.org/ns#"
   xmlns:rdf="http://www.w3.org/1999/02/22-rdf-syntax-ns#"
   xmlns:svg="http://www.w3.org/2000/svg"
   xmlns="http://www.w3.org/2000/svg"
   xmlns:sodipodi="http://sodipodi.sourceforge.net/DTD/sodipodi-0.dtd"
   xmlns:inkscape="http://www.inkscape.org/namespaces/inkscape"
   inkscape:version="1.0 (4035a4fb49, 2020-05-01)"
   height="48.669998"
   width="48.669998"
   sodipodi:docname="framed_colour_pen4.svg"
   version="1.1"
   viewBox="0 0 48.670001 48.669995"
   data-name="Layer 1"
   id="Layer_1">
  <metadata
     id="metadata3535">
    <rdf:RDF>
      <cc:Work
         rdf:about="">
        <dc:format>image/svg+xml</dc:format>
        <dc:type
           rdf:resource="http://purl.org/dc/dcmitype/StillImage" />
        <dc:title></dc:title>
      </cc:Work>
    </rdf:RDF>
  </metadata>
  <sodipodi:namedview
     inkscape:current-layer="Layer_1"
     inkscape:window-maximized="0"
     inkscape:window-y="223"
     inkscape:window-x="2951"
     inkscape:cy="24.335001"
     inkscape:cx="24.259998"
     inkscape:zoom="7.7680691"
     inkscape:pagecheckerboard="true"
     fit-margin-bottom="0"
     fit-margin-right="0"
     fit-margin-left="0"
     fit-margin-top="0"
     units="px"
     showgrid="false"
     id="namedview3533"
     inkscape:window-height="480"
     inkscape:window-width="709"
     inkscape:pageshadow="2"
     inkscape:pageopacity="0"
     guidetolerance="10"
     gridtolerance="10"
     objecttolerance="10"
     borderopacity="1"
     bordercolor="#666666"
     pagecolor="#ffffff" />
  <defs
     id="defs3500">
    <style
       id="style3495">.cls-1,.cls-11{fill:none;}.cls-2,.cls-5{fill:#fff;}.cls-3{clip-path:url(#clip-path);}.cls-4{fill:#fbb03b;}.cls-5{opacity:0.28;}.cls-6{fill:#dc9536;}.cls-7{fill:#c7b299;}.cls-8{fill:#998675;opacity:0.64;}.cls-9{fill:#b3b3b3;}.cls-10{fill:#999;}.cls-11{stroke:#b3b3b3;stroke-miterlimit:10;stroke-width:2px;}</style>
    <clipPath
       id="clip-path">
      <rect
         id="rect3497"
         rx="9.5200005"
         height="46.669998"
         width="46.669998"
         y="23.67"
         x="44.259998"
         class="cls-1" />
    </clipPath>
  </defs>
  <rect
     id="rect3502"
     rx="9.5200005"
     height="46.669998"
     width="46.669998"
     y="1"
     x="0.85000229"
     class="cls-2" />
  <g
     transform="translate(-43.259998,-22.67)"
     id="g3528"
     clip-path="url(#clip-path)"
     class="cls-3">
    <path
       id="path3504"
       d="m 68.92,110.84 h -1.17 a 2.84,2.84 0 0 1 -2.58,-3 L 63.32,53.78 a 2.9,2.9 0 0 1 2.58,-3.22 h 4.25 a 2.89,2.89 0 0 1 2.58,3.18 l -1.23,54.09 a 2.85,2.85 0 0 1 -2.58,3.01 z"
       class="cls-4" />
    <path
       id="path3506"
       d="m 67.44,104.34 h -0.27 c -0.32,0 -0.58,-1 -0.59,-2.25 L 66.14,61.58 c 0,-1.32 0.25,-2.4 0.59,-2.39 h 1 c 0.34,0 0.61,1.1 0.6,2.4 L 68,102.11 c 0,1.26 -0.24,2.24 -0.56,2.23 z"
       class="cls-5" />
    <path
       id="path3508"
       d="m 69.93,110.59 a 3.14,3.14 0 0 0 1.57,-2.76 L 72.73,53.74 A 2.89,2.89 0 0 0 70.15,50.56 H 65.9 a 2.9,2.9 0 0 0 -2.58,3.22 l 0.17,4.78 h 7.41 z"
       class="cls-6" />
    <path
       id="path3510"
       d="M 62.55,51.11 57.32,32 l 4.4,-0.94 2.05,4.7 0.94,-4.87 c 0,0 8.63,0 14.11,1.23 l -5.34,18.76 z"
       class="cls-7" />
    <path
       id="path3512"
       d="M 78.82,32.11 C 77.97,31.92 77.04,31.77 76.09,31.63 L 72.19,46.9 H 61.4 l 1.15,4.21 10.93,-0.23 z"
       class="cls-8" />
    <path
       id="path3514"
       d="m 72.28,31.22 -1.36,13.3 2.86,-13.17 z"
       class="cls-8" />
    <path
       id="path3516"
       d="M 68.54,31 69,39.35 69.62,31 Z"
       class="cls-8" />
    <path
       id="path3518"
       d="m 65.81,30.9 0.5,13.66 0.46,-13.64 z"
       class="cls-8" />
    <polygon
       id="polygon3520"
       points="58.83,31.67 62.41,41.76 59.8,31.46 "
       class="cls-8" />
    <path
       id="path3522"
       d="M 72.59,57.18 H 63.8 a 1.63,1.63 0 0 1 -1.63,-1.63 l -0.94,-5.09 a 1.63,1.63 0 0 1 1.63,-1.63 h 10.33 a 1.63,1.63 0 0 1 1.63,1.63 l -0.6,5.09 a 1.63,1.63 0 0 1 -1.63,1.63 z"
       class="cls-9" />
    <path
       id="path3524"
       d="m 68,55.67 -2.32,0.07 c -0.24,0 -0.44,-0.45 -0.46,-1 l -0.35,-3.21 c 0,-0.57 0.16,-1 0.4,-1 L 68,50.38 c 0.23,0 0.44,0.45 0.46,1 L 68.4,54.6 c 0,0.59 -0.18,1.06 -0.4,1.07 z"
       class="cls-5" />
    <path
       id="path3526"
       d="m 73.19,48.83 h -1.06 l -0.59,8.35 h 1 a 1.63,1.63 0 0 0 1.63,-1.63 l 0.6,-5.09 a 1.63,1.63 0 0 0 -1.58,-1.63 z"
       class="cls-10" />
  </g>
  <rect
     id="rect3530"
     rx="9.5200005"
     height="46.669998"
     width="46.669998"
     y="1"
     x="1"
     class="cls-11" />
</svg>
