<svg id="Layer_1" data-name="Layer 1" xmlns="http://www.w3.org/2000/svg" xmlns:xlink="http://www.w3.org/1999/xlink" viewBox="0 0 595.28 439.89"><defs><style>.cls-1,.cls-10{fill:none;}.cls-13,.cls-16,.cls-2,.cls-6{fill:#fff;}.cls-3{clip-path:url(#clip-path);}.cls-4{fill:#0071bc;}.cls-5{fill:#1c5a9d;}.cls-6{opacity:0.28;}.cls-7{fill:#29abe2;}.cls-8{fill:gray;}.cls-9{fill:#666;}.cls-10{stroke:#b3b3b3;stroke-miterlimit:10;stroke-width:2px;}.cls-11{clip-path:url(#clip-path-2);}.cls-12{fill:#999;}.cls-13{opacity:0.15;}.cls-14{fill:#ccc;}.cls-15{fill:#b3b3b3;}.cls-16{opacity:0.26;}.cls-17{clip-path:url(#clip-path-3);}.cls-18{fill:#e14422;}.cls-19{fill:#c03719;}.cls-20{fill:#f15a24;}.cls-21{clip-path:url(#clip-path-4);}.cls-22{clip-path:url(#clip-path-5);}.cls-23{fill:#fdbf74;}.cls-24{fill:#ebaa6d;}.cls-25{fill:#8cc63f;}.cls-26{fill:#009245;}.cls-27{fill:#39b54a;}.cls-28{fill:#006837;}.cls-29{clip-path:url(#clip-path-6);}.cls-30{fill:#fbb03b;}.cls-31{fill:#dc9536;}.cls-32{fill:#c7b299;}.cls-33{fill:#998675;opacity:0.64;}.cls-34{clip-path:url(#clip-path-7);}.cls-35{fill:#f0d1b8;}.cls-36{fill:#feebd8;}.cls-37{clip-path:url(#clip-path-8);}.cls-38{clip-path:url(#clip-path-9);}.cls-39{clip-path:url(#clip-path-10);}.cls-40{fill:#0f3951;}.cls-41{fill:#205275;}.cls-42{fill:#9fe1ff;}.cls-43{fill:#fdf9f6;}.cls-44{fill:#fcd3ab;}</style><clipPath id="clip-path"><rect class="cls-1" x="124.38" y="78.94" width="46.67" height="46.67" rx="9.52"/></clipPath><clipPath id="clip-path-2"><rect class="cls-1" x="124.38" y="135.56" width="46.67" height="46.67" rx="9.52"/></clipPath><clipPath id="clip-path-3"><rect class="cls-1" x="181.32" y="78.94" width="46.67" height="46.67" rx="9.52"/></clipPath><clipPath id="clip-path-4"><rect class="cls-1" x="181.32" y="135.56" width="46.67" height="46.67" rx="9.52"/></clipPath><clipPath id="clip-path-5"><rect class="cls-1" x="239.03" y="78.94" width="46.67" height="46.67" rx="9.52"/></clipPath><clipPath id="clip-path-6"><rect class="cls-1" x="297.67" y="78.94" width="46.67" height="46.67" rx="9.52"/></clipPath><clipPath id="clip-path-7"><rect class="cls-1" x="355.56" y="78.94" width="46.67" height="46.67" rx="9.52"/></clipPath><clipPath id="clip-path-8"><rect class="cls-1" x="355.56" y="135.56" width="46.67" height="46.67" rx="9.52"/></clipPath><clipPath id="clip-path-9"><rect class="cls-1" x="297.67" y="135.56" width="46.67" height="46.67" rx="9.52"/></clipPath><clipPath id="clip-path-10"><rect class="cls-1" x="239.03" y="135.56" width="46.67" height="46.67" rx="9.52"/></clipPath></defs><rect class="cls-2" x="124.38" y="78.94" width="46.67" height="46.67" rx="9.52"/><g class="cls-3"><path class="cls-4" d="M144,93.44s-.18-4.83,2.48-8.26a1.6,1.6,0,0,1,2.63.14,12.74,12.74,0,0,1,2.12,7.82C150.83,100.91,143.8,97.67,144,93.44Z"/><path class="cls-5" d="M147.12,84.76c1.38.69,2.44,3.37,2.39,5.12,0,2.25-.71,2.45-1.86,2.5s-2.59,0-3.44-1c-.15,1.18-.23,2-.23,2a4.35,4.35,0,0,0,1.6,3.44l4.2.28c.77-.7,1.33-2,1.43-4a12.74,12.74,0,0,0-2.12-7.82A1.79,1.79,0,0,0,147.12,84.76Z"/><path class="cls-6" d="M147.71,86.64c-.53-.12-1.78,4.68,0,4.74S148.19,86.74,147.71,86.64Z"/><rect class="cls-7" x="137.36" y="102.03" width="20.71" height="32.71" rx="2.54"/><path class="cls-4" d="M155.53,102h-.66l.3,1s.48.31.48,4.72v27a2.53,2.53,0,0,0,2.41-2.52V104.56A2.53,2.53,0,0,0,155.53,102Z"/><path class="cls-8" d="M144,93.35a21,21,0,0,0,7-.09,1.53,1.53,0,0,1,1.5.66c.68,4.52,2.8,5.58,4.57,6.94a1.47,1.47,0,0,1-1,2.32c-3.51,0-9.95.07-16.89.07-1,0-1.76-1.61-1-2.28,1.78-1.47,3.13-2.06,4.23-6.91C142.6,93.44,143.42,93.22,144,93.35Z"/><path class="cls-9" d="M156.07,103.18a1.47,1.47,0,0,0,1-2.32c-1.77-1.36-3.89-2.42-4.57-6.94a1.53,1.53,0,0,0-1.5-.66l-1.07.15h0s.88,4.45,2.76,6.33c1.53,1.53,2.83,2.66,2.5,3.43Z"/><path class="cls-6" d="M149.78,105.79a20.32,20.32,0,0,0,2.08-.13,1.1,1.1,0,0,1,1.23,1.11v24.84a1.1,1.1,0,0,1-1.09,1.11l-2,.05a1.13,1.13,0,0,1-1.14-1.11l-.16-24.74A1.11,1.11,0,0,1,149.78,105.79Z"/><path class="cls-6" d="M149.42,95.25a13.67,13.67,0,0,0,2.56,5.51.38.38,0,0,1-.2.61,7.91,7.91,0,0,1-3.16.21.37.37,0,0,1-.26-.36,58.1,58.1,0,0,1,.32-5.93A.38.38,0,0,1,149.42,95.25Z"/></g><rect class="cls-10" x="124.38" y="78.94" width="46.67" height="46.67" rx="9.52"/><rect class="cls-2" x="124.38" y="135.56" width="46.67" height="46.67" rx="9.52"/><g class="cls-11"><path class="cls-12" d="M144,150.06s-.18-4.83,2.48-8.25a1.6,1.6,0,0,1,2.63.13,12.74,12.74,0,0,1,2.12,7.82C150.83,157.53,143.8,154.29,144,150.06Z"/><path class="cls-8" d="M147.12,141.38c1.38.7,2.44,3.37,2.39,5.12,0,2.25-.71,2.46-1.86,2.5s-2.59,0-3.44-1c-.15,1.19-.23,2-.23,2a4.35,4.35,0,0,0,1.6,3.44l4.2.28c.77-.7,1.33-2,1.43-4a12.74,12.74,0,0,0-2.12-7.82A1.79,1.79,0,0,0,147.12,141.38Z"/><path class="cls-13" d="M147.71,143.26c-.53-.12-1.78,4.68,0,4.74S148.19,143.37,147.71,143.26Z"/><rect class="cls-12" x="137.36" y="158.65" width="20.71" height="32.71" rx="2.54"/><path class="cls-8" d="M155.53,158.65h-.66l.3,1s.48.31.48,4.72v27a2.53,2.53,0,0,0,2.41-2.52V161.18A2.53,2.53,0,0,0,155.53,158.65Z"/><path class="cls-14" d="M144,150a20.71,20.71,0,0,0,7-.09,1.53,1.53,0,0,1,1.5.66c.68,4.52,2.8,5.58,4.57,6.94a1.47,1.47,0,0,1-1,2.32c-3.51,0-9.95.07-16.89.07-1,0-1.76-1.61-1-2.28,1.78-1.47,3.13-2.06,4.23-6.91C142.6,150.06,143.42,149.84,144,150Z"/><path class="cls-15" d="M156.07,159.8a1.47,1.47,0,0,0,1-2.32c-1.77-1.36-3.89-2.42-4.57-6.94a1.53,1.53,0,0,0-1.5-.66l-1.07.16h0s.88,4.45,2.76,6.33c1.53,1.53,2.83,2.66,2.5,3.43Z"/><path class="cls-13" d="M149.78,162.41a20.32,20.32,0,0,0,2.08-.13,1.1,1.1,0,0,1,1.23,1.11v24.84a1.12,1.12,0,0,1-1.09,1.12l-2,0a1.13,1.13,0,0,1-1.14-1.11l-.16-24.74A1.13,1.13,0,0,1,149.78,162.41Z"/><path class="cls-16" d="M149.42,151.87a13.61,13.61,0,0,0,2.56,5.51.38.38,0,0,1-.2.61,7.73,7.73,0,0,1-3.16.21.37.37,0,0,1-.26-.36,58.1,58.1,0,0,1,.32-5.93A.38.38,0,0,1,149.42,151.87Z"/></g><rect class="cls-10" x="124.38" y="135.56" width="46.67" height="46.67" rx="9.52"/><rect class="cls-2" x="181.17" y="78.94" width="46.67" height="46.67" rx="9.52"/><g class="cls-17"><rect class="cls-18" x="194.89" y="103.53" width="19.75" height="9.33" rx="1.36"/><path class="cls-19" d="M213.28,103.53h-1.49v1.85l-16.9,0v2.73l.06,1.66,2.06,1.13,9.81,1.1a3.25,3.25,0,0,0,.26.2h6a1.58,1.58,0,0,0,1.52-1.15v-6.19A1.36,1.36,0,0,0,213.28,103.53Z"/><path class="cls-20" d="M206.71,91.39h-3.89a.69.69,0,0,1-.68-.68V85.44a.68.68,0,0,1,1-.62L207,86.55a.68.68,0,0,1,.41.62v3.54A.69.69,0,0,1,206.71,91.39Z"/><path class="cls-18" d="M207,86.55l-1-.45,0,.08v3.08h-3.79v1.45a.61.61,0,0,0,.08.3l4.12.24.87-.09a.67.67,0,0,0,.18-.45V87.17A.68.68,0,0,0,207,86.55Z"/><path class="cls-1" d="M206.71,91.39h-3.89a.69.69,0,0,1-.68-.68V85.44a.68.68,0,0,1,1-.62L207,86.55a.68.68,0,0,1,.41.62v3.54A.69.69,0,0,1,206.71,91.39Z"/><path class="cls-6" d="M202.85,85.39c-.32-.11-.5.26.35.68s3.33,1.58,3.45,1.21S203.78,85.69,202.85,85.39Z"/><path class="cls-8" d="M213.45,103.53H196.24a.51.51,0,0,1-.37-.87,16.64,16.64,0,0,0,4.79-10.48,1.54,1.54,0,0,1,1.56-1.43c1.62,0,4.16,0,5.57,0a1,1,0,0,1,1.06,1c.36,5.15,3.48,9.26,5,11A.51.51,0,0,1,213.45,103.53Z"/><path class="cls-9" d="M207.05,90.75h-.75l0,.5s1.2,8.68,4.7,11.77a3.28,3.28,0,0,0,.8.51h1.61a.51.51,0,0,0,.38-.86c-.2-.23-.44-.51-.7-.84h0l-.05-.07c-.18-.23-.37-.47-.57-.74l0,0c-.19-.27-.39-.57-.59-.88l-.11-.16c-.2-.3-.39-.62-.58-1l-.11-.19c-.2-.36-.39-.72-.57-1.1l-.06-.11c-.17-.38-.34-.76-.5-1.16l-.06-.15c-.16-.41-.3-.84-.43-1.27,0-.08-.05-.17-.08-.25-.12-.44-.23-.88-.31-1.34a1.85,1.85,0,0,1,0-.23,12,12,0,0,1-.19-1.48h0a.94.94,0,0,0-.11-.38,1,1,0,0,0-1-.58h-.74Z"/><path class="cls-6" d="M205.46,94.12a16,16,0,0,0,2.24,6.73.42.42,0,0,1-.31.67,9.08,9.08,0,0,1-3.69-.16.42.42,0,0,1-.25-.46,67.65,67.65,0,0,1,1.15-6.82A.44.44,0,0,1,205.46,94.12Z"/><path class="cls-20" d="M212.75,145.41h-15.7a1.47,1.47,0,0,1-1.47-1.36l-3-36.26a1.48,1.48,0,0,1,1.47-1.6h21.48a1.48,1.48,0,0,1,1.47,1.59L214.22,144A1.48,1.48,0,0,1,212.75,145.41Z"/><path class="cls-18" d="M215.51,106.19h-3.87l-2.1,39.22h3.21a1.48,1.48,0,0,0,1.47-1.37L217,107.78A1.48,1.48,0,0,0,215.51,106.19Z"/><path class="cls-6" d="M204.56,108.86h2.9a1.32,1.32,0,0,1,1.33,1.36L208,141.91a1.33,1.33,0,0,1-1.33,1.3h-.84a1.32,1.32,0,0,1-1.32-1.27l-1.31-31.7A1.33,1.33,0,0,1,204.56,108.86Z"/></g><rect class="cls-10" x="181.32" y="78.94" width="46.67" height="46.67" rx="9.52"/><rect class="cls-2" x="181.17" y="135.56" width="46.67" height="46.67" rx="9.52"/><g class="cls-21"><rect class="cls-8" x="194.89" y="160.15" width="19.75" height="9.33" rx="1.36"/><path class="cls-9" d="M213.28,160.15h-1.49V162l-16.9,0v2.73l.06,1.65,2.06,1.13,9.81,1.1.26.21h6a1.58,1.58,0,0,0,1.52-1.16v-6.19A1.36,1.36,0,0,0,213.28,160.15Z"/><path class="cls-12" d="M206.71,148h-3.89a.68.68,0,0,1-.68-.68v-5.26a.68.68,0,0,1,1-.63l3.88,1.73a.68.68,0,0,1,.41.62v3.54A.68.68,0,0,1,206.71,148Z"/><path class="cls-8" d="M207,143.17l-1-.45,0,.08v3.08h-3.79v1.45a.61.61,0,0,0,.08.3l4.12.24.87-.09a.67.67,0,0,0,.18-.45v-3.54A.68.68,0,0,0,207,143.17Z"/><path class="cls-1" d="M206.71,148h-3.89a.68.68,0,0,1-.68-.68v-5.26a.68.68,0,0,1,1-.63l3.88,1.73a.68.68,0,0,1,.41.62v3.54A.68.68,0,0,1,206.71,148Z"/><path class="cls-6" d="M202.85,142c-.32-.11-.5.26.35.68s3.33,1.58,3.45,1.21S203.78,142.32,202.85,142Z"/><path class="cls-14" d="M213.45,160.15H196.24a.51.51,0,0,1-.37-.87,16.64,16.64,0,0,0,4.79-10.48,1.54,1.54,0,0,1,1.56-1.43c1.62,0,4.16,0,5.57,0a1,1,0,0,1,1.06,1c.36,5.15,3.48,9.27,5,11A.51.51,0,0,1,213.45,160.15Z"/><path class="cls-15" d="M207.05,147.37h-.75l0,.5s1.2,8.68,4.7,11.77a3.28,3.28,0,0,0,.8.51h1.61a.51.51,0,0,0,.38-.85c-.2-.24-.44-.52-.7-.85h0s0-.05-.05-.06l-.57-.75,0,0c-.19-.27-.39-.57-.59-.88l-.11-.16c-.2-.3-.39-.62-.58-1l-.11-.19c-.2-.35-.39-.72-.57-1.1l-.06-.11c-.17-.37-.34-.76-.5-1.16l-.06-.15c-.16-.41-.3-.84-.43-1.27,0-.08-.05-.17-.08-.25-.12-.44-.23-.88-.31-1.34a1.85,1.85,0,0,1,0-.23,11.73,11.73,0,0,1-.19-1.48h0a.94.94,0,0,0-.11-.38,1.05,1.05,0,0,0-1-.58h-.74Z"/><path class="cls-6" d="M205.46,150.74a16,16,0,0,0,2.24,6.73.43.43,0,0,1-.31.68,9.27,9.27,0,0,1-3.69-.17.42.42,0,0,1-.25-.46,67.65,67.65,0,0,1,1.15-6.82A.44.44,0,0,1,205.46,150.74Z"/><path class="cls-12" d="M212.75,202h-15.7a1.47,1.47,0,0,1-1.47-1.36l-3-36.26a1.48,1.48,0,0,1,1.47-1.6h21.48A1.48,1.48,0,0,1,217,164.4l-2.76,36.26A1.48,1.48,0,0,1,212.75,202Z"/><path class="cls-8" d="M215.51,162.81h-3.87L209.54,202h3.21a1.48,1.48,0,0,0,1.47-1.37L217,164.4A1.48,1.48,0,0,0,215.51,162.81Z"/><path class="cls-6" d="M204.56,165.48h2.9a1.32,1.32,0,0,1,1.33,1.36l-.76,31.7a1.33,1.33,0,0,1-1.33,1.29h-.84a1.32,1.32,0,0,1-1.32-1.27l-1.31-31.7A1.33,1.33,0,0,1,204.56,165.48Z"/></g><rect class="cls-10" x="181.32" y="135.56" width="46.67" height="46.67" rx="9.52"/><rect class="cls-2" x="238.87" y="78.94" width="46.67" height="46.67" rx="9.52"/><g class="cls-22"><polygon class="cls-23" points="264.24 90.76 260.01 90.76 253.3 105.86 258.38 114.95 265.85 114.95 270.95 105.86 264.24 90.76"/><polygon class="cls-24" points="262.94 90.76 268.14 110.85 270.95 105.86 264.24 90.76 262.94 90.76"/><path class="cls-25" d="M253.3,105.86v4.06h0v40.47h4.41V109.92A4.24,4.24,0,0,0,253.3,105.86Z"/><path class="cls-26" d="M266.53,109.92h0v40.47H271V105.86A4.25,4.25,0,0,0,266.53,109.92Z"/><path class="cls-27" d="M266.53,109.92a4.43,4.43,0,0,0-8.82,0v40.47h8.82V109.92Z"/><path class="cls-26" d="M261.1,87.33l-2.26,6.06h6.57l-2.27-6.06A1.08,1.08,0,0,0,261.1,87.33Z"/><path class="cls-28" d="M263.62,93.39h1.79l-2.27-6.06a1,1,0,0,0-1.27-.69Z"/><path class="cls-25" d="M264.53,136.47c0,1.65-.61,3-1.37,3h0c-.75,0-1.36-1.33-1.36-3v-20c0-1.65.61-3,1.36-3h0c.76,0,1.37,1.34,1.37,3Z"/></g><rect class="cls-10" x="239.03" y="78.94" width="46.67" height="46.67" rx="9.52"/><rect class="cls-2" x="297.52" y="78.94" width="46.67" height="46.67" rx="9.52"/><g class="cls-29"><path class="cls-30" d="M322.33,166.11h-1.17a2.84,2.84,0,0,1-2.58-3l-1.85-54.09a2.91,2.91,0,0,1,2.58-3.22h4.25a2.89,2.89,0,0,1,2.58,3.18l-1.23,54.09A2.85,2.85,0,0,1,322.33,166.11Z"/><path class="cls-6" d="M320.85,159.61h-.27c-.32,0-.58-1-.59-2.25l-.44-40.51c0-1.32.25-2.4.59-2.39l1,0c.34,0,.61,1.1.6,2.4l-.27,40.48C321.44,158.64,321.17,159.62,320.85,159.61Z"/><path class="cls-31" d="M323.34,165.86a3.14,3.14,0,0,0,1.57-2.76L326.14,109a2.89,2.89,0,0,0-2.58-3.18h-4.25a2.91,2.91,0,0,0-2.58,3.22l.17,4.78h7.41Z"/><path class="cls-32" d="M316,106.38l-5.23-19.12,4.4-.94,2.05,4.7.94-4.87s8.63,0,14.11,1.23l-5.34,18.77Z"/><path class="cls-33" d="M332.23,87.38c-.85-.19-1.78-.34-2.73-.48l-3.9,15.27H314.81l1.15,4.21,10.93-.23Z"/><path class="cls-33" d="M325.69,86.49l-1.36,13.3,2.86-13.17Z"/><path class="cls-33" d="M322,86.25l.47,8.37.61-8.31Z"/><path class="cls-33" d="M319.22,86.17l.5,13.66.46-13.64Z"/><polygon class="cls-33" points="312.24 86.94 315.81 97.03 313.21 86.73 312.24 86.94"/><path class="cls-15" d="M326,112.45h-8.79a1.63,1.63,0,0,1-1.63-1.63l-.94-5.09a1.63,1.63,0,0,1,1.63-1.63H326.6a1.63,1.63,0,0,1,1.63,1.63l-.6,5.09A1.63,1.63,0,0,1,326,112.45Z"/><path class="cls-6" d="M321.4,110.94l-2.32.07c-.24,0-.44-.45-.46-1l-.35-3.21c0-.57.16-1,.4-1l2.73-.09c.23,0,.44.45.46,1l-.06,3.22C321.81,110.46,321.63,110.93,321.4,110.94Z"/><path class="cls-12" d="M326.6,104.1h-1.06l-.59,8.35H326a1.63,1.63,0,0,0,1.63-1.63l.6-5.09A1.63,1.63,0,0,0,326.6,104.1Z"/></g><rect class="cls-10" x="297.67" y="78.94" width="46.67" height="46.67" rx="9.52"/><rect class="cls-2" x="355.4" y="78.94" width="46.67" height="46.67" rx="9.52"/><g class="cls-34"><rect class="cls-35" x="366.86" y="88.15" width="24.12" height="40.47" rx="3.14"/><path class="cls-36" d="M383.87,91H367a3.31,3.31,0,0,0-.09.77V125a3.63,3.63,0,0,0,3.64,3.63h16.91a3.25,3.25,0,0,0,.1-.77V94.65A3.63,3.63,0,0,0,383.87,91Z"/><path class="cls-4" d="M391.18,119.22l-3.62,1.31H367.07a1.19,1.19,0,0,1-1.33-1.26V97.76c0-.51.1-1.38,1.33-1.31h20.38L391,95.26c.72-.21,1.12.3,1.07,1.22l.11,21.31A1.44,1.44,0,0,1,391.18,119.22Z"/><path class="cls-5" d="M391,95.26l-3.53,1.19h-.08v24.08h.19l3.62-1.31a1.44,1.44,0,0,0,1-1.43l-.11-21.31C392.1,95.56,391.7,95.05,391,95.26Z"/><rect class="cls-6" x="370.56" y="98.59" width="5.38" height="19.94" rx="1.85"/></g><rect class="cls-10" x="355.56" y="78.94" width="46.67" height="46.67" rx="9.52"/><rect class="cls-2" x="355.4" y="135.56" width="46.67" height="46.67" rx="9.52"/><g class="cls-37"><rect class="cls-15" x="366.86" y="144.77" width="24.12" height="40.47" rx="3.14"/><path class="cls-14" d="M383.87,147.64H367a3.16,3.16,0,0,0-.09.76v33.2a3.64,3.64,0,0,0,3.64,3.64h16.91a3.25,3.25,0,0,0,.1-.77v-33.2A3.63,3.63,0,0,0,383.87,147.64Z"/><path class="cls-12" d="M391.18,175.84l-3.62,1.31H367.07a1.19,1.19,0,0,1-1.33-1.26V154.38c0-.51.1-1.38,1.33-1.31h20.38l3.53-1.19c.72-.21,1.12.3,1.07,1.22l.11,21.31A1.43,1.43,0,0,1,391.18,175.84Z"/><path class="cls-8" d="M391,151.88l-3.53,1.19h-.08v24.08h.19l3.62-1.31a1.43,1.43,0,0,0,1-1.43l-.11-21.31C392.1,152.18,391.7,151.67,391,151.88Z"/><rect class="cls-6" x="370.56" y="155.21" width="5.38" height="19.94" rx="1.85"/></g><rect class="cls-10" x="355.56" y="135.56" width="46.67" height="46.67" rx="9.52"/><rect class="cls-2" x="297.52" y="135.56" width="46.67" height="46.67" rx="9.52"/><g class="cls-38"><path class="cls-12" d="M322.33,222.73h-1.17a2.84,2.84,0,0,1-2.58-3l-1.85-54.09a2.91,2.91,0,0,1,2.58-3.22h4.25a2.89,2.89,0,0,1,2.58,3.18l-1.23,54.09A2.85,2.85,0,0,1,322.33,222.73Z"/><path class="cls-6" d="M320.85,216.23h-.27c-.32,0-.58-1-.59-2.25l-.44-40.51c0-1.32.25-2.4.59-2.39l1,.05c.34,0,.61,1.1.6,2.4L321.44,214C321.44,215.26,321.17,216.24,320.85,216.23Z"/><path class="cls-8" d="M323.34,222.48a3.14,3.14,0,0,0,1.57-2.76l1.23-54.09a2.89,2.89,0,0,0-2.58-3.18h-4.25a2.91,2.91,0,0,0-2.58,3.22l.17,4.78h7.41Z"/><path class="cls-14" d="M316,163l-5.23-19.12,4.4-.94,2.05,4.7.94-4.87s8.63,0,14.11,1.23l-5.34,18.77Z"/><path class="cls-15" d="M332.23,144c-.85-.19-1.78-.34-2.73-.48l-3.9,15.27H314.81L316,163l10.93-.23Z"/><path class="cls-15" d="M325.69,143.11l-1.36,13.3,2.86-13.16Z"/><path class="cls-15" d="M322,142.88l.47,8.36.61-8.31Z"/><path class="cls-15" d="M319.22,142.79l.5,13.66.46-13.64Z"/><polygon class="cls-15" points="312.24 143.56 315.81 153.65 313.21 143.35 312.24 143.56"/><path class="cls-12" d="M326,169.07h-8.79a1.63,1.63,0,0,1-1.63-1.63l-.94-5.09a1.63,1.63,0,0,1,1.63-1.63H326.6a1.63,1.63,0,0,1,1.63,1.63l-.6,5.09A1.63,1.63,0,0,1,326,169.07Z"/><path class="cls-6" d="M321.4,167.56l-2.32.07c-.24,0-.44-.45-.46-1l-.35-3.21c0-.57.16-1,.4-1l2.73-.09c.23,0,.44.45.46,1l-.06,3.22C321.81,167.08,321.63,167.55,321.4,167.56Z"/><path class="cls-8" d="M326.6,160.72h-1.06l-.59,8.35H326a1.63,1.63,0,0,0,1.63-1.63l.6-5.09A1.63,1.63,0,0,0,326.6,160.72Z"/></g><rect class="cls-10" x="297.67" y="135.56" width="46.67" height="46.67" rx="9.52"/><rect class="cls-2" x="238.87" y="135.56" width="46.67" height="46.67" rx="9.52"/><g class="cls-39"><polygon class="cls-15" points="264.24 147.38 260.01 147.38 253.3 162.48 258.38 171.57 265.85 171.57 270.95 162.48 264.24 147.38"/><polygon class="cls-12" points="262.94 147.38 268.14 167.47 270.95 162.48 264.24 147.38 262.94 147.38"/><path class="cls-14" d="M253.3,162.48v4.06h0V207h4.41V166.54A4.24,4.24,0,0,0,253.3,162.48Z"/><path class="cls-8" d="M266.53,166.54h0V207H271V162.48A4.25,4.25,0,0,0,266.53,166.54Z"/><path class="cls-12" d="M266.53,166.54a4.43,4.43,0,0,0-8.82,0V207h8.82V166.54Z"/><path class="cls-8" d="M261.1,144,258.84,150h6.57L263.14,144A1.08,1.08,0,0,0,261.1,144Z"/><path class="cls-9" d="M263.62,150h1.79L263.14,144a1,1,0,0,0-1.27-.69Z"/><path class="cls-6" d="M264.53,193.09c0,1.65-.61,3-1.37,3h0c-.75,0-1.36-1.33-1.36-3v-20c0-1.65.61-3,1.36-3h0c.76,0,1.37,1.34,1.37,3Z"/></g><rect class="cls-10" x="239.03" y="135.56" width="46.67" height="46.67" rx="9.52"/><rect class="cls-2" x="414.46" y="78.94" width="46.67" height="46.67" rx="9.52"/><rect class="cls-10" x="414.46" y="78.94" width="46.67" height="46.67" rx="9.52"/><rect class="cls-40" x="423.59" y="92.95" width="28.41" height="11.65" rx="3.13"/><rect class="cls-36" x="425.72" y="84.77" width="23.62" height="37"/><rect class="cls-41" x="420.06" y="97.36" width="35.47" height="17.44" rx="3.01"/><circle class="cls-42" cx="450.93" cy="102.13" r="1.35"/><circle class="cls-43" cx="447.48" cy="102.13" r="1.35"/><rect class="cls-40" x="423.29" y="100.83" width="11.12" height="2.65" rx="1.32"/><path class="cls-40" d="M420.06,110.6v1.2a3,3,0,0,0,3,3h29.46a3,3,0,0,0,3-3v-1.2Z"/><rect class="cls-36" x="425.72" y="112.15" width="23.62" height="9.62"/><rect class="cls-44" x="429.32" y="113.6" width="15.88" height="0.88"/><rect class="cls-44" x="429.32" y="115.98" width="15.88" height="0.88"/><rect class="cls-44" x="429.32" y="118.36" width="15.88" height="0.88"/><path class="cls-4" d="M144,222.26s-.18-4.82,2.48-8.25a1.6,1.6,0,0,1,2.63.13,12.76,12.76,0,0,1,2.12,7.83C150.83,229.73,143.8,226.5,144,222.26Z"/><path class="cls-5" d="M147.12,213.58c1.38.7,2.44,3.37,2.39,5.12,0,2.25-.71,2.46-1.86,2.5s-2.59,0-3.44-1c-.15,1.19-.23,2-.23,2a4.35,4.35,0,0,0,1.6,3.44l4.2.28c.77-.7,1.33-2,1.43-4a12.76,12.76,0,0,0-2.12-7.83A1.8,1.8,0,0,0,147.12,213.58Z"/><path class="cls-6" d="M147.71,215.46c-.53-.12-1.78,4.69,0,4.74S148.19,215.57,147.71,215.46Z"/><rect class="cls-7" x="137.36" y="230.85" width="20.71" height="43.71" rx="2.54"/><path class="cls-4" d="M155.53,230.85h-.66l.3,1s.48.31.48,4.72v38a2.52,2.52,0,0,0,2.41-2.52V233.38A2.53,2.53,0,0,0,155.53,230.85Z"/><path class="cls-8" d="M144,222.17a21,21,0,0,0,7-.08,1.49,1.49,0,0,1,1.5.66c.68,4.51,2.8,5.57,4.57,6.93a1.47,1.47,0,0,1-1,2.32c-3.51,0-9.95.07-16.89.07-1,0-1.76-1.61-1-2.28,1.78-1.47,3.13-2.06,4.23-6.9C142.6,222.26,143.42,222,144,222.17Z"/><path class="cls-9" d="M156.07,232a1.47,1.47,0,0,0,1-2.32c-1.77-1.36-3.89-2.42-4.57-6.93a1.49,1.49,0,0,0-1.5-.66l-1.07.15h0s.88,4.45,2.76,6.33c1.53,1.53,2.83,2.66,2.5,3.43Z"/><path class="cls-6" d="M149.78,234.62c.59,0,1.35-.05,2.08-.14a1.11,1.11,0,0,1,1.23,1.11v35.84a1.11,1.11,0,0,1-1.09,1.12l-2,0a1.13,1.13,0,0,1-1.14-1.11l-.16-35.74A1.11,1.11,0,0,1,149.78,234.62Z"/><path class="cls-6" d="M149.42,224.07a13.61,13.61,0,0,0,2.56,5.51.37.37,0,0,1-.2.61,7.73,7.73,0,0,1-3.16.21.36.36,0,0,1-.26-.36,58.23,58.23,0,0,1,.32-5.93A.38.38,0,0,1,149.42,224.07Z"/><rect class="cls-18" x="194.89" y="232.35" width="19.75" height="9.33" rx="1.36"/><path class="cls-19" d="M213.28,232.35h-1.49v1.85l-16.9,0V237l.06,1.65,2.06,1.13,9.81,1.1.26.21h6a1.58,1.58,0,0,0,1.52-1.16v-6.19A1.36,1.36,0,0,0,213.28,232.35Z"/><path class="cls-20" d="M206.71,220.21h-3.89a.68.68,0,0,1-.68-.68v-5.26a.68.68,0,0,1,1-.63l3.88,1.73a.68.68,0,0,1,.41.62v3.54A.68.68,0,0,1,206.71,220.21Z"/><path class="cls-18" d="M207,215.37l-1-.45,0,.08v3.09h-3.79v1.44a.61.61,0,0,0,.08.3l4.12.25.87-.1a.67.67,0,0,0,.18-.45V216A.68.68,0,0,0,207,215.37Z"/><path class="cls-1" d="M206.71,220.21h-3.89a.68.68,0,0,1-.68-.68v-5.26a.68.68,0,0,1,1-.63l3.88,1.73a.68.68,0,0,1,.41.62v3.54A.68.68,0,0,1,206.71,220.21Z"/><path class="cls-6" d="M202.85,214.21c-.32-.11-.5.27.35.68s3.33,1.58,3.45,1.22S203.78,214.52,202.85,214.21Z"/><path class="cls-8" d="M213.45,232.35H196.24a.51.51,0,0,1-.37-.87A16.61,16.61,0,0,0,200.66,221a1.54,1.54,0,0,1,1.56-1.43c1.62,0,4.16,0,5.57,0a1,1,0,0,1,1.06,1c.36,5.15,3.48,9.27,5,11A.51.51,0,0,1,213.45,232.35Z"/><path class="cls-9" d="M207.05,219.57h-.75l0,.5s1.2,8.67,4.7,11.76a3.28,3.28,0,0,0,.8.51h1.61a.51.51,0,0,0,.38-.85l-.7-.84v0l-.05-.06-.57-.75,0,0c-.19-.27-.39-.57-.59-.87l-.11-.16c-.2-.31-.39-.63-.58-1l-.11-.2c-.2-.35-.39-.71-.57-1.1l-.06-.11c-.17-.37-.34-.76-.5-1.16l-.06-.15c-.16-.41-.3-.83-.43-1.27,0-.08-.05-.16-.08-.25-.12-.43-.23-.88-.31-1.34a1.57,1.57,0,0,1,0-.23,11.73,11.73,0,0,1-.19-1.48h0a.94.94,0,0,0-.11-.38,1.05,1.05,0,0,0-1-.58h-.74Z"/><path class="cls-6" d="M205.46,223a16,16,0,0,0,2.24,6.72.43.43,0,0,1-.31.68,9.27,9.27,0,0,1-3.69-.17.42.42,0,0,1-.25-.46,68.59,68.59,0,0,1,1.15-6.82A.44.44,0,0,1,205.46,223Z"/><path class="cls-20" d="M212.75,274.23h-15.7a1.47,1.47,0,0,1-1.47-1.35l-3-36.26A1.48,1.48,0,0,1,194,235h21.48a1.47,1.47,0,0,1,1.47,1.59l-2.76,36.25A1.48,1.48,0,0,1,212.75,274.23Z"/><path class="cls-18" d="M215.51,235h-3.87l-2.1,39.21h3.21a1.48,1.48,0,0,0,1.47-1.37L217,236.61A1.47,1.47,0,0,0,215.51,235Z"/><path class="cls-6" d="M204.56,237.68h2.9a1.33,1.33,0,0,1,1.33,1.36l-.76,31.7A1.33,1.33,0,0,1,206.7,272h-.84a1.32,1.32,0,0,1-1.32-1.27l-1.31-31.69A1.34,1.34,0,0,1,204.56,237.68Z"/><polygon class="cls-23" points="264.24 219.58 260.01 219.58 253.3 234.68 258.38 243.78 265.85 243.78 270.95 234.68 264.24 219.58"/><polygon class="cls-24" points="262.94 219.58 268.14 239.68 270.95 234.68 264.24 219.58 262.94 219.58"/><path class="cls-25" d="M253.3,234.68v4.06h0v35.48h4.41V238.74A4.24,4.24,0,0,0,253.3,234.68Z"/><path class="cls-26" d="M266.53,238.74h0v35.48H271V234.68A4.25,4.25,0,0,0,266.53,238.74Z"/><path class="cls-27" d="M266.53,238.74a4.43,4.43,0,0,0-8.82,0v35.48h8.82V238.74Z"/><path class="cls-26" d="M261.1,216.15l-2.26,6.07h6.57l-2.27-6.07A1.08,1.08,0,0,0,261.1,216.15Z"/><path class="cls-28" d="M263.62,222.22h1.79l-2.27-6.07a1.05,1.05,0,0,0-1.27-.69Z"/><path class="cls-25" d="M264.53,265.29c0,1.65-.61,3-1.37,3h0c-.75,0-1.36-1.33-1.36-3v-20c0-1.65.61-3,1.36-3h0c.76,0,1.37,1.33,1.37,3Z"/><path class="cls-30" d="M322.33,275.93h-1.17a2.84,2.84,0,0,1-2.58-3l-1.85-35.09a2.9,2.9,0,0,1,2.58-3.22h4.25a2.88,2.88,0,0,1,2.58,3.17l-1.23,35.09A2.85,2.85,0,0,1,322.33,275.93Z"/><path class="cls-6" d="M320.85,269.43h-.27c-.32,0-.58-1-.59-2.25l-.44-21.51c0-1.31.25-2.4.59-2.38l1,0c.34,0,.61,1.1.6,2.4l-.27,21.49C321.44,268.46,321.17,269.45,320.85,269.43Z"/><path class="cls-31" d="M323.34,275.68a3.14,3.14,0,0,0,1.57-2.76l1.23-35.09a2.88,2.88,0,0,0-2.58-3.17h-4.25a2.9,2.9,0,0,0-2.58,3.22l.17,4.78h7.41Z"/><path class="cls-32" d="M316,235.2l-5.23-19.12,4.4-.93,2.05,4.69.94-4.87s8.63,0,14.11,1.23L326.89,235Z"/><path class="cls-33" d="M332.23,216.2c-.85-.19-1.78-.34-2.73-.48L325.6,231H314.81L316,235.2l10.93-.22Z"/><path class="cls-33" d="M325.69,215.31l-1.36,13.3,2.86-13.16Z"/><path class="cls-33" d="M322,215.08l.47,8.37.61-8.32Z"/><path class="cls-33" d="M319.22,215l.5,13.67.46-13.65Z"/><polygon class="cls-33" points="312.24 215.76 315.81 225.85 313.21 215.55 312.24 215.76"/><path class="cls-15" d="M326,241.27h-8.79a1.63,1.63,0,0,1-1.63-1.63l-.94-5.09a1.63,1.63,0,0,1,1.63-1.63H326.6a1.63,1.63,0,0,1,1.63,1.63l-.6,5.09A1.63,1.63,0,0,1,326,241.27Z"/><path class="cls-6" d="M321.4,239.76l-2.32.07c-.24,0-.44-.45-.46-1l-.35-3.21c0-.57.16-1,.4-1l2.73-.08c.23,0,.44.44.46,1l-.06,3.23C321.81,239.29,321.63,239.75,321.4,239.76Z"/><path class="cls-12" d="M326.6,232.92h-1.06l-.59,8.35H326a1.63,1.63,0,0,0,1.63-1.63l.6-5.09A1.63,1.63,0,0,0,326.6,232.92Z"/><rect class="cls-35" x="366.86" y="226.98" width="24.12" height="40.47" rx="3.14"/><path class="cls-36" d="M383.87,229.84H367a3.16,3.16,0,0,0-.09.76v33.2a3.64,3.64,0,0,0,3.64,3.64h16.91a3.25,3.25,0,0,0,.1-.77v-33.2A3.64,3.64,0,0,0,383.87,229.84Z"/><path class="cls-4" d="M391.18,258.05l-3.62,1.3H367.07a1.18,1.18,0,0,1-1.33-1.25V236.58c0-.51.1-1.38,1.33-1.3h20.38l3.53-1.2c.72-.2,1.12.31,1.07,1.23l.11,21.3A1.44,1.44,0,0,1,391.18,258.05Z"/><path class="cls-5" d="M391,234.08l-3.53,1.2h-.08v24.07h.19l3.62-1.3a1.44,1.44,0,0,0,1-1.44l-.11-21.3C392.1,234.39,391.7,233.88,391,234.08Z"/><rect class="cls-6" x="370.56" y="237.41" width="5.38" height="19.94" rx="1.85"/><rect class="cls-40" x="423.59" y="232.77" width="28.41" height="11.65" rx="3.13"/><rect class="cls-36" x="425.72" y="224.6" width="23.62" height="37"/><rect class="cls-41" x="420.06" y="237.19" width="35.47" height="17.44" rx="3.01"/><circle class="cls-42" cx="450.93" cy="241.95" r="1.35"/><circle class="cls-43" cx="447.48" cy="241.95" r="1.35"/><rect class="cls-40" x="423.29" y="240.66" width="11.12" height="2.65" rx="1.32"/><path class="cls-40" d="M420.06,250.42v1.2a3,3,0,0,0,3,3h29.46a3,3,0,0,0,3-3v-1.2Z"/><rect class="cls-36" x="425.72" y="251.98" width="23.62" height="9.62"/><rect class="cls-44" x="429.32" y="253.42" width="15.88" height="0.88"/><rect class="cls-44" x="429.32" y="255.8" width="15.88" height="0.88"/><rect class="cls-44" x="429.32" y="258.19" width="15.88" height="0.88"/><path class="cls-12" d="M144,301.32s-.18-4.82,2.48-8.25a1.6,1.6,0,0,1,2.63.13,12.76,12.76,0,0,1,2.12,7.83C150.83,308.79,143.8,305.55,144,301.32Z"/><path class="cls-8" d="M147.12,292.64c1.38.7,2.44,3.37,2.39,5.12,0,2.25-.71,2.46-1.86,2.5s-2.59,0-3.44-1c-.15,1.19-.23,2-.23,2a4.35,4.35,0,0,0,1.6,3.44l4.2.28a5.64,5.64,0,0,0,1.43-4,12.76,12.76,0,0,0-2.12-7.83A1.8,1.8,0,0,0,147.12,292.64Z"/><path class="cls-13" d="M147.71,294.52c-.53-.12-1.78,4.68,0,4.74S148.19,294.63,147.71,294.52Z"/><rect class="cls-12" x="137.36" y="309.91" width="20.71" height="43.71" rx="2.54"/><path class="cls-8" d="M155.53,309.91h-.66l.3,1s.48.31.48,4.72v38a2.53,2.53,0,0,0,2.41-2.52V312.44A2.53,2.53,0,0,0,155.53,309.91Z"/><path class="cls-14" d="M144,301.23a20.71,20.71,0,0,0,7-.09,1.53,1.53,0,0,1,1.5.66c.68,4.52,2.8,5.58,4.57,6.94a1.47,1.47,0,0,1-1,2.32c-3.51,0-9.95.07-16.89.07-1,0-1.76-1.61-1-2.28,1.78-1.47,3.13-2.06,4.23-6.9C142.6,301.32,143.42,301.1,144,301.23Z"/><path class="cls-15" d="M156.07,311.06a1.47,1.47,0,0,0,1-2.32c-1.77-1.36-3.89-2.42-4.57-6.94a1.53,1.53,0,0,0-1.5-.66l-1.07.16h0s.88,4.45,2.76,6.33c1.53,1.53,2.83,2.66,2.5,3.43Z"/><path class="cls-13" d="M149.78,313.67a20.32,20.32,0,0,0,2.08-.13,1.11,1.11,0,0,1,1.23,1.11v35.84a1.12,1.12,0,0,1-1.09,1.12l-2,0a1.13,1.13,0,0,1-1.14-1.11l-.16-35.74A1.13,1.13,0,0,1,149.78,313.67Z"/><path class="cls-16" d="M149.42,303.13a13.61,13.61,0,0,0,2.56,5.51.38.38,0,0,1-.2.61,7.73,7.73,0,0,1-3.16.21.37.37,0,0,1-.26-.36,58.23,58.23,0,0,1,.32-5.93A.38.38,0,0,1,149.42,303.13Z"/><rect class="cls-8" x="194.89" y="311.41" width="19.75" height="9.33" rx="1.36"/><path class="cls-9" d="M213.28,311.41h-1.49v1.85l-16.9,0V316l.06,1.65,2.06,1.13,9.81,1.1.26.21h6a1.58,1.58,0,0,0,1.52-1.16v-6.19A1.36,1.36,0,0,0,213.28,311.41Z"/><path class="cls-12" d="M206.71,299.27h-3.89a.68.68,0,0,1-.68-.68v-5.26a.68.68,0,0,1,1-.63l3.88,1.73a.68.68,0,0,1,.41.62v3.54A.68.68,0,0,1,206.71,299.27Z"/><path class="cls-8" d="M207,294.43l-1-.45,0,.08v3.09h-3.79v1.44a.61.61,0,0,0,.08.3l4.12.24.87-.09a.67.67,0,0,0,.18-.45v-3.54A.68.68,0,0,0,207,294.43Z"/><path class="cls-1" d="M206.71,299.27h-3.89a.68.68,0,0,1-.68-.68v-5.26a.68.68,0,0,1,1-.63l3.88,1.73a.68.68,0,0,1,.41.62v3.54A.68.68,0,0,1,206.71,299.27Z"/><path class="cls-6" d="M202.85,293.27c-.32-.11-.5.26.35.68s3.33,1.58,3.45,1.21S203.78,293.58,202.85,293.27Z"/><path class="cls-14" d="M213.45,311.41H196.24a.51.51,0,0,1-.37-.87,16.64,16.64,0,0,0,4.79-10.48,1.54,1.54,0,0,1,1.56-1.43c1.62,0,4.16,0,5.57,0a1,1,0,0,1,1.06,1c.36,5.15,3.48,9.27,5,11A.51.51,0,0,1,213.45,311.41Z"/><path class="cls-15" d="M207.05,298.63h-.75l0,.5s1.2,8.68,4.7,11.77a3.28,3.28,0,0,0,.8.51h1.61a.51.51,0,0,0,.38-.85c-.2-.24-.44-.52-.7-.85h0l-.05-.06-.57-.75,0,0c-.19-.27-.39-.57-.59-.87l-.11-.17c-.2-.3-.39-.62-.58-1l-.11-.19c-.2-.35-.39-.72-.57-1.1l-.06-.11c-.17-.37-.34-.76-.5-1.16l-.06-.15c-.16-.41-.3-.83-.43-1.27,0-.08-.05-.17-.08-.25-.12-.44-.23-.88-.31-1.34a1.85,1.85,0,0,1,0-.23,11.73,11.73,0,0,1-.19-1.48h0a.94.94,0,0,0-.11-.38,1.05,1.05,0,0,0-1-.58h-.74Z"/><path class="cls-6" d="M205.46,302a16,16,0,0,0,2.24,6.72.43.43,0,0,1-.31.68,9.27,9.27,0,0,1-3.69-.17.42.42,0,0,1-.25-.46A67.65,67.65,0,0,1,204.6,302,.44.44,0,0,1,205.46,302Z"/><path class="cls-12" d="M212.75,353.29h-15.7a1.47,1.47,0,0,1-1.47-1.36l-3-36.25a1.47,1.47,0,0,1,1.47-1.6h21.48a1.47,1.47,0,0,1,1.47,1.58l-2.76,36.26A1.48,1.48,0,0,1,212.75,353.29Z"/><path class="cls-8" d="M215.51,314.08h-3.87l-2.1,39.21h3.21a1.48,1.48,0,0,0,1.47-1.37L217,315.66A1.47,1.47,0,0,0,215.51,314.08Z"/><path class="cls-6" d="M204.56,316.74h2.9a1.33,1.33,0,0,1,1.33,1.36L208,349.8a1.33,1.33,0,0,1-1.33,1.29h-.84a1.32,1.32,0,0,1-1.32-1.27l-1.31-31.7A1.33,1.33,0,0,1,204.56,316.74Z"/><polygon class="cls-15" points="264.24 298.64 260.01 298.64 253.3 313.74 258.38 322.83 265.85 322.83 270.95 313.74 264.24 298.64"/><polygon class="cls-12" points="262.94 298.64 268.14 318.74 270.95 313.74 264.24 298.64 262.94 298.64"/><path class="cls-14" d="M253.3,313.74v4.06h0v35.47h4.41V317.8A4.24,4.24,0,0,0,253.3,313.74Z"/><path class="cls-8" d="M266.53,317.8h0v35.47H271V313.74A4.25,4.25,0,0,0,266.53,317.8Z"/><path class="cls-12" d="M266.53,317.8a4.43,4.43,0,0,0-8.82,0v35.47h8.82V317.8Z"/><path class="cls-8" d="M261.1,295.21l-2.26,6.07h6.57l-2.27-6.07A1.08,1.08,0,0,0,261.1,295.21Z"/><path class="cls-9" d="M263.62,301.28h1.79l-2.27-6.07a1,1,0,0,0-1.27-.69Z"/><path class="cls-6" d="M264.53,344.35c0,1.65-.61,3-1.37,3h0c-.75,0-1.36-1.33-1.36-3v-20c0-1.65.61-3,1.36-3h0c.76,0,1.37,1.34,1.37,3Z"/><path class="cls-12" d="M322.33,355h-1.17a2.84,2.84,0,0,1-2.58-3l-1.85-35.1a2.91,2.91,0,0,1,2.58-3.22h4.25a2.89,2.89,0,0,1,2.58,3.18L324.91,352A2.85,2.85,0,0,1,322.33,355Z"/><path class="cls-6" d="M320.85,348.49h-.27c-.32,0-.58-1-.59-2.25l-.44-21.51c0-1.32.25-2.4.59-2.38l1,0c.34,0,.61,1.1.6,2.4l-.27,21.48C321.44,347.52,321.17,348.5,320.85,348.49Z"/><path class="cls-8" d="M323.34,354.74a3.14,3.14,0,0,0,1.57-2.76l1.23-35.09a2.89,2.89,0,0,0-2.58-3.18h-4.25a2.91,2.91,0,0,0-2.58,3.22l.17,4.78h7.41Z"/><path class="cls-14" d="M316,314.26l-5.23-19.12,4.4-.94,2.05,4.7.94-4.87s8.63,0,14.11,1.23L326.89,314Z"/><path class="cls-15" d="M332.23,295.26c-.85-.19-1.78-.34-2.73-.48l-3.9,15.27H314.81l1.15,4.21,10.93-.22Z"/><path class="cls-15" d="M325.69,294.37l-1.36,13.3,2.86-13.16Z"/><path class="cls-15" d="M322,294.14l.47,8.36.61-8.31Z"/><path class="cls-15" d="M319.22,294.05l.5,13.66.46-13.64Z"/><polygon class="cls-15" points="312.24 294.82 315.81 304.91 313.21 294.61 312.24 294.82"/><path class="cls-12" d="M326,320.33h-8.79a1.63,1.63,0,0,1-1.63-1.63l-.94-5.09a1.63,1.63,0,0,1,1.63-1.63H326.6a1.63,1.63,0,0,1,1.63,1.63l-.6,5.09A1.63,1.63,0,0,1,326,320.33Z"/><path class="cls-6" d="M321.4,318.82l-2.32.07c-.24,0-.44-.45-.46-1l-.35-3.21c0-.57.16-1,.4-1l2.73-.08c.23,0,.44.44.46,1l-.06,3.23C321.81,318.34,321.63,318.81,321.4,318.82Z"/><path class="cls-8" d="M326.6,312h-1.06l-.59,8.35H326a1.63,1.63,0,0,0,1.63-1.63l.6-5.09A1.63,1.63,0,0,0,326.6,312Z"/><rect class="cls-15" x="366.86" y="306.04" width="24.12" height="40.47" rx="3.14"/><path class="cls-14" d="M383.87,308.9H367a3.16,3.16,0,0,0-.09.76v33.2a3.64,3.64,0,0,0,3.64,3.64h16.91a3.25,3.25,0,0,0,.1-.77v-33.2A3.63,3.63,0,0,0,383.87,308.9Z"/><path class="cls-12" d="M391.18,337.11l-3.62,1.3H367.07a1.19,1.19,0,0,1-1.33-1.26V315.64c0-.51.1-1.38,1.33-1.31h20.38l3.53-1.19c.72-.21,1.12.3,1.07,1.22l.11,21.31A1.45,1.45,0,0,1,391.18,337.11Z"/><path class="cls-8" d="M391,313.14l-3.53,1.19h-.08v24.08h.19l3.62-1.3a1.45,1.45,0,0,0,1-1.44l-.11-21.31C392.1,313.44,391.7,312.93,391,313.14Z"/><rect class="cls-6" x="370.56" y="316.47" width="5.38" height="19.94" rx="1.85"/><rect class="cls-8" x="423.59" y="311.83" width="28.41" height="11.65" rx="3.13"/><rect class="cls-14" x="425.72" y="303.66" width="23.62" height="37"/><rect class="cls-12" x="420.06" y="316.24" width="35.47" height="17.44" rx="3.01"/><circle class="cls-14" cx="450.93" cy="321.01" r="1.35"/><circle class="cls-14" cx="447.48" cy="321.01" r="1.35"/><rect class="cls-8" x="423.29" y="319.72" width="11.12" height="2.65" rx="1.32"/><path class="cls-8" d="M420.06,329.48v1.2a3,3,0,0,0,3,3h29.46a3,3,0,0,0,3-3v-1.2Z"/><rect class="cls-14" x="425.72" y="331.04" width="23.62" height="9.62"/><rect class="cls-12" x="429.32" y="332.48" width="15.88" height="0.88"/><rect class="cls-12" x="429.32" y="334.86" width="15.88" height="0.88"/><rect class="cls-12" x="429.32" y="337.24" width="15.88" height="0.88"/><rect class="cls-2" x="414.46" y="135.56" width="46.67" height="46.67" rx="9.52"/><rect class="cls-10" x="414.46" y="135.56" width="46.67" height="46.67" rx="9.52"/><rect class="cls-8" x="423.59" y="149.57" width="28.41" height="11.65" rx="3.13"/><rect class="cls-14" x="425.72" y="141.4" width="23.62" height="37"/><rect class="cls-12" x="420.06" y="153.98" width="35.47" height="17.44" rx="3.01"/><circle class="cls-14" cx="450.93" cy="158.75" r="1.35"/><circle class="cls-14" cx="447.48" cy="158.75" r="1.35"/><rect class="cls-8" x="423.29" y="157.45" width="11.12" height="2.65" rx="1.32"/><path class="cls-8" d="M420.06,167.22v1.2a3,3,0,0,0,3,3h29.46a3,3,0,0,0,3-3v-1.2Z"/><rect class="cls-14" x="425.72" y="168.77" width="23.62" height="9.62"/><rect class="cls-12" x="429.32" y="170.22" width="15.88" height="0.88"/><rect class="cls-12" x="429.32" y="172.6" width="15.88" height="0.88"/><rect class="cls-12" x="429.32" y="174.98" width="15.88" height="0.88"/></svg>