<svg xmlns="http://www.w3.org/2000/svg" height="48.67" width="48.67" version="1.1" data-name="Layer 1" id="prefix__Layer_1"><defs id="prefix__defs3420"><style id="style3418">.prefix__cls-3{fill:#0f3951}.prefix__cls-4{fill:#feebd8}.prefix__cls-8{fill:#fcd3ab}</style></defs><rect id="prefix__rect3422" rx="9.52" height="46.67" width="46.67" y="1" x="1" fill="#fff"/><rect id="prefix__rect3424" rx="9.52" height="46.67" width="46.67" y="1" x="1" fill="none" stroke="#b3b3b3" stroke-miterlimit="10" stroke-width="2"/><rect id="prefix__rect3426" rx="3.13" height="11.65" width="28.41" y="15.01" x="10.12" class="prefix__cls-3"/><path id="prefix__rect3428" class="prefix__cls-4" d="M12.26 6.83h23.62v37H12.26z"/><rect id="prefix__rect3430" rx="3.01" height="17.44" width="35.47" y="19.42" x="6.6" fill="#205275"/><circle id="prefix__circle3432" r="1.35" cy="24.19" cx="37.47" fill="#9fe1ff"/><circle id="prefix__circle3434" r="1.35" cy="24.19" cx="34.01" fill="#fdf9f6"/><rect id="prefix__rect3436" rx="1.32" height="2.65" width="11.12" y="22.89" x="9.83" class="prefix__cls-3"/><path id="prefix__path3438" d="M6.6 32.66v1.2a3 3 0 003 3h29.46a3 3 0 003-3v-1.2z" class="prefix__cls-3"/><path id="prefix__rect3440" class="prefix__cls-4" d="M12.26 34.21h23.62v9.62H12.26z"/><path id="prefix__rect3442" class="prefix__cls-8" d="M15.86 35.66h15.88v.88H15.86z"/><path id="prefix__rect3444" class="prefix__cls-8" d="M15.86 38.04h15.88v.88H15.86z"/><path id="prefix__rect3446" class="prefix__cls-8" d="M15.86 40.42h15.88v.88H15.86z"/></svg>