<svg id="Layer_1" data-name="Layer 1" xmlns="http://www.w3.org/2000/svg" viewBox="0 0 135.04 94.01"><defs><style>.cls-1{fill:#fbb316;}.cls-2{fill:#e59400;opacity:0.55;}.cls-3{opacity:0.46;}.cls-4{fill:#fff;}</style></defs><path class="cls-1" d="M65.14,35.75,52.66,45.91a.85.85,0,0,0,0,1.32L65.2,57.45a.85.85,0,0,0,1.39-.66L66.53,36.4A.85.85,0,0,0,65.14,35.75Z"/><path class="cls-1" d="M65.47,41.9a24.06,24.06,0,0,1,10.59,2.43c5.73,3,6.85,9.47,6.6,13.14-.12,1.19-1.81,1.31-1.93.31a6.35,6.35,0,0,0-4.24-5.66c-3.8-1.44-10.77-1.37-10.77-1.37Z"/><path class="cls-2" d="M78.14,50.59c-3.79-2.42-9.93-3-12.17-3.19h-.35l-.54,0,.18,8L53,45.61l-.37.3a.85.85,0,0,0,0,1.32L65.2,57.45a.85.85,0,0,0,1.39-.66l0-6c2,0,6.93.24,9.92,1.37a6.35,6.35,0,0,1,4.24,5.66.82.82,0,0,0,1.07.64C81.81,56.25,81.31,52.61,78.14,50.59Z"/><g class="cls-3"><path class="cls-4" d="M58.7,46.24c1.66-1.33,3.34-2.65,5-3.91a.86.86,0,0,0-.93-1.45c-1.71,1.27-3.39,2.58-5,3.91A.88.88,0,0,0,57.51,46a.87.87,0,0,0,1.19.26Z"/></g><g class="cls-3"><path class="cls-4" d="M66.8,44.75c4.91-.09,10.33,1.37,12.91,6,.3.52,1.13.09.83-.44-2.74-4.88-8.43-6.56-13.69-6.47-.6,0-.65,1,0,1Z"/></g></svg>